<svg width="22" height="22" viewBox="0 0 22 22" fill="none" xmlns="http://www.w3.org/2000/svg">
<path d="M20.15 4.87225L11.9 0.356309C11.6243 0.204569 11.3147 0.125 11 0.125C10.6853 0.125 10.3757 0.204569 10.1 0.356309L1.85 4.87225C1.5548 5.03377 1.3085 5.27175 1.13695 5.56124C0.965404 5.85073 0.874922 6.18106 0.875 6.51756V15.4819C0.874922 15.8184 0.965404 16.1488 1.13695 16.4382C1.3085 16.7277 1.5548 16.9657 1.85 17.1272L10.1 21.6432C10.3756 21.7951 10.6853 21.8748 11 21.8748C11.3147 21.8748 11.6244 21.7951 11.9 21.6432L20.15 17.1272C20.4452 16.9657 20.6915 16.7277 20.863 16.4382C21.0346 16.1488 21.1251 15.8184 21.125 15.4819V6.51756C21.1251 6.18106 21.0346 5.85073 20.863 5.56124C20.6915 5.27175 20.4452 5.03377 20.15 4.87225ZM11 2.42818L17.75 6.12475L11 9.8185L4.25 6.12475L11 2.42818ZM3.125 8.07381L9.875 11.7676V18.9554L3.125 15.2597V8.07381ZM12.125 18.9554V11.7676L18.875 8.07381V15.2597L12.125 18.9554Z" fill="#94A3B8"/>
</svg>
