<svg width="20" height="20" viewBox="0 0 20 20" fill="none" xmlns="http://www.w3.org/2000/svg">
<path d="M1.5 0.671875H7.5C7.75028 0.671875 7.99172 0.758728 8.18359 0.916016L8.2627 0.987305C8.46488 1.18949 8.57812 1.46406 8.57812 1.75C8.57812 2.00028 8.49127 2.24172 8.33398 2.43359L8.2627 2.5127C8.06051 2.71488 7.78594 2.82812 7.5 2.82812H2.57812V17.1719H7.5C7.75027 17.1719 7.99172 17.2587 8.18359 17.416L8.2627 17.4873C8.46488 17.6895 8.57812 17.9641 8.57812 18.25C8.57812 18.5003 8.49127 18.7417 8.33398 18.9336L8.2627 19.0127C8.06051 19.2149 7.78594 19.3281 7.5 19.3281H1.5C1.24973 19.3281 1.00828 19.2413 0.816406 19.084L0.737305 19.0127C0.535117 18.8105 0.421875 18.5359 0.421875 18.25V1.75C0.421875 1.49972 0.508728 1.25828 0.666016 1.06641L0.737305 0.987305C0.939492 0.785117 1.21406 0.671875 1.5 0.671875ZM14.249 5.1709C14.4996 5.1709 14.7414 5.25766 14.9336 5.41504L15.0127 5.4873L18.7627 9.2373C18.838 9.31241 18.9021 9.39782 18.9521 9.49121L18.9971 9.58789C19.0513 9.71889 19.0792 9.85918 19.0791 10.001L19.0742 10.1074C19.0672 10.1777 19.0528 10.2469 19.0322 10.3145L18.9971 10.4141C18.9561 10.5125 18.9006 10.6046 18.833 10.6865L18.7617 10.7646L15.0117 14.5146C14.8092 14.7172 14.5345 14.8311 14.248 14.8311C13.9973 14.831 13.7557 14.7436 13.5635 14.5859L13.4844 14.5146C13.2818 14.3121 13.168 14.0374 13.168 13.751L13.1729 13.6445C13.1938 13.4324 13.2779 13.2313 13.4131 13.0664L13.4844 12.9873L15.3145 11.1582L15.3945 11.0781H7.5C7.24973 11.0781 7.00828 10.9913 6.81641 10.834L6.7373 10.7627C6.53512 10.5605 6.42188 10.2859 6.42188 10C6.42188 9.74972 6.50873 9.50828 6.66602 9.31641L6.7373 9.2373C6.93949 9.03512 7.21406 8.92188 7.5 8.92188H15.3945L15.3145 8.8418L13.4854 7.01465C13.2828 6.8121 13.169 6.53742 13.1689 6.25098L13.1738 6.14453C13.1948 5.93235 13.2789 5.73129 13.4141 5.56641L13.4854 5.4873C13.6879 5.28476 13.9626 5.17091 14.249 5.1709Z" fill="#10B981" stroke="#4F46E5" stroke-width="0.09375"/>
</svg>
