<svg width="40" height="40" viewBox="0 0 40 40" fill="none" xmlns="http://www.w3.org/2000/svg">
<rect width="40" height="40" rx="20" fill="#F1F5F9"/>
<path d="M28.7704 24.5393L21.9383 12.6745C21.7404 12.336 21.4574 12.0553 21.1173 11.8602C20.7773 11.6651 20.3921 11.5625 20.0001 11.5625C19.608 11.5625 19.2228 11.6651 18.8828 11.8602C18.5427 12.0553 18.2597 12.336 18.0618 12.6745L11.2297 24.5393C11.0377 24.8677 10.9365 25.2413 10.9365 25.6217C10.9365 26.0021 11.0377 26.3757 11.2297 26.7041C11.4254 27.0443 11.7081 27.3262 12.0487 27.521C12.3893 27.7158 12.7756 27.8165 13.168 27.8127H26.8321C27.2242 27.8162 27.6102 27.7154 27.9505 27.5206C28.2908 27.3258 28.5732 27.044 28.7688 26.7041C28.9611 26.3759 29.0625 26.0024 29.0628 25.6219C29.0631 25.2415 28.9621 24.8679 28.7704 24.5393ZM27.1454 25.7659C27.1136 25.82 27.0678 25.8646 27.0128 25.8948C26.9578 25.9251 26.8956 25.9399 26.8329 25.9377H13.168C13.1053 25.9399 13.0431 25.9251 12.9881 25.8948C12.9331 25.8646 12.8873 25.82 12.8555 25.7659C12.8286 25.722 12.8143 25.6716 12.8143 25.6202C12.8143 25.5687 12.8286 25.5183 12.8555 25.4745L19.6876 13.6096C19.7214 13.5575 19.7677 13.5147 19.8223 13.4851C19.8768 13.4555 19.938 13.44 20.0001 13.44C20.0621 13.44 20.1233 13.4555 20.1778 13.4851C20.2324 13.5147 20.2787 13.5575 20.3126 13.6096L27.1438 25.4745C27.171 25.5181 27.1855 25.5685 27.1858 25.6199C27.1861 25.6714 27.1721 25.7219 27.1454 25.7659ZM19.0626 20.6252V18.1252C19.0626 17.8766 19.1613 17.6381 19.3371 17.4623C19.513 17.2865 19.7514 17.1877 20.0001 17.1877C20.2487 17.1877 20.4871 17.2865 20.663 17.4623C20.8388 17.6381 20.9376 17.8766 20.9376 18.1252V20.6252C20.9376 20.8739 20.8388 21.1123 20.663 21.2881C20.4871 21.464 20.2487 21.5627 20.0001 21.5627C19.7514 21.5627 19.513 21.464 19.3371 21.2881C19.1613 21.1123 19.0626 20.8739 19.0626 20.6252ZM21.2501 23.7502C21.2501 23.9975 21.1767 24.2391 21.0394 24.4447C20.902 24.6503 20.7068 24.8105 20.4784 24.9051C20.25 24.9997 19.9987 25.0245 19.7562 24.9762C19.5137 24.928 19.291 24.8089 19.1162 24.6341C18.9414 24.4593 18.8223 24.2366 18.7741 23.9941C18.7258 23.7516 18.7506 23.5003 18.8452 23.2719C18.9398 23.0435 19.1 22.8483 19.3056 22.7109C19.5111 22.5735 19.7528 22.5002 20.0001 22.5002C20.3316 22.5002 20.6495 22.6319 20.8839 22.8664C21.1184 23.1008 21.2501 23.4187 21.2501 23.7502Z" fill="#475569"/>
</svg>
