<svg width="21" height="20" viewBox="0 0 21 20" fill="none" xmlns="http://www.w3.org/2000/svg">
<g id="CaretLeft">
<path id="Vector" d="M13.6634 15.5867C13.8396 15.7628 13.9385 16.0017 13.9385 16.2508C13.9385 16.4998 13.8396 16.7387 13.6634 16.9148C13.4873 17.091 13.2484 17.1899 12.9994 17.1899C12.7503 17.1899 12.5114 17.091 12.3353 16.9148L6.08531 10.6648C5.99791 10.5777 5.92856 10.4742 5.88124 10.3603C5.83393 10.2463 5.80957 10.1242 5.80957 10.0008C5.80957 9.87738 5.83393 9.75521 5.88124 9.64125C5.92856 9.5273 5.99791 9.42381 6.08531 9.33671L12.3353 3.08671C12.5114 2.91059 12.7503 2.81165 12.9994 2.81165C13.2484 2.81165 13.4873 2.91059 13.6634 3.08671C13.8396 3.26283 13.9385 3.5017 13.9385 3.75077C13.9385 3.99984 13.8396 4.23871 13.6634 4.41483L8.07828 9.99999L13.6634 15.5867Z" fill="#14B8A6"/>
</g>
</svg>
