<svg width="145" height="87" viewBox="0 0 145 87" fill="none" xmlns="http://www.w3.org/2000/svg">
<path d="M123.356 71.4838H15.7539C15.113 71.4838 14.593 70.988 14.593 70.3763V1.10757C14.593 0.495877 15.1126 0 15.7539 0H123.356C123.997 0 124.517 0.495877 124.517 1.10757V70.3763C124.517 70.988 123.997 71.4838 123.356 71.4838Z" fill="#263238"/>
<path d="M123.156 3.13525H15.9546V66.7077H123.156V3.13525Z" fill="white" stroke="#263238" stroke-miterlimit="10" stroke-linecap="round" stroke-linejoin="round"/>
<path d="M72.4746 69.4692H66.6357C66.4449 69.4692 66.29 69.3217 66.29 69.1394V68.6304C66.29 68.4483 66.4446 68.3005 66.6357 68.3005H72.4746C72.6654 68.3005 72.8202 68.448 72.8202 68.6304V69.1394C72.8202 69.3214 72.6654 69.4692 72.4746 69.4692Z" fill="white"/>
<path d="M69.5551 2.32969C70.0392 2.32969 70.4317 1.95513 70.4317 1.49309C70.4317 1.03105 70.0392 0.656494 69.5551 0.656494C69.0709 0.656494 68.6785 1.03105 68.6785 1.49309C68.6785 1.95513 69.0709 2.32969 69.5551 2.32969Z" fill="white"/>
<path d="M88.1909 57.7046V61.0388L90.7799 59.3717L88.1909 57.7046Z" stroke="#263238" stroke-miterlimit="10" stroke-linecap="round" stroke-linejoin="round"/>
<path d="M90.9243 57.7046V61.0388L93.5133 59.3717L90.9243 57.7046Z" stroke="#263238" stroke-miterlimit="10" stroke-linecap="round" stroke-linejoin="round"/>
<path d="M68.2093 61.0388V57.7046L65.6204 59.3717L68.2093 61.0388Z" stroke="#263238" stroke-miterlimit="10" stroke-linecap="round" stroke-linejoin="round"/>
<path d="M65.4771 57.7046V61.0388" stroke="#263238" stroke-miterlimit="10" stroke-linecap="round" stroke-linejoin="round"/>
<path d="M64.7378 57.7046V61.0388" stroke="#263238" stroke-miterlimit="10" stroke-linecap="round" stroke-linejoin="round"/>
<path d="M97.2422 57.7046V61.0388L99.8311 59.3717L97.2422 57.7046Z" stroke="#263238" stroke-miterlimit="10" stroke-linecap="round" stroke-linejoin="round"/>
<path d="M99.9746 61.0388V57.7046" stroke="#263238" stroke-miterlimit="10" stroke-linecap="round" stroke-linejoin="round"/>
<path d="M100.714 61.0388V57.7046" stroke="#263238" stroke-miterlimit="10" stroke-linecap="round" stroke-linejoin="round"/>
<path d="M77.2608 61.0388V57.7046L74.6719 59.3717L77.2608 61.0388Z" stroke="#263238" stroke-miterlimit="10" stroke-linecap="round" stroke-linejoin="round"/>
<path d="M74.5274 61.0388V57.7046L71.9385 59.3717L74.5274 61.0388Z" stroke="#263238" stroke-miterlimit="10" stroke-linecap="round" stroke-linejoin="round"/>
<path d="M81.4314 57.7046V61.0388L84.0203 59.3717L81.4314 57.7046Z" stroke="#263238" stroke-miterlimit="10" stroke-linecap="round" stroke-linejoin="round"/>
<path opacity="0.5" d="M122.535 3.60938H16.5757V5.8002H122.535V3.60938Z" fill="#14B8A6"/>
<path d="M16.5757 5.80005H122.535" stroke="#263238" stroke-miterlimit="10" stroke-linecap="round" stroke-linejoin="round"/>
<path d="M18.5237 4.65381H21.9554" stroke="#263238" stroke-miterlimit="10" stroke-linecap="round" stroke-linejoin="round"/>
<path d="M25.7073 4.65381H28.7957" stroke="#263238" stroke-miterlimit="10" stroke-linecap="round" stroke-linejoin="round"/>
<path d="M32.7979 4.65381H35.8028" stroke="#263238" stroke-miterlimit="10" stroke-linecap="round" stroke-linejoin="round"/>
<path d="M42.4125 5.80029H40.8269V66.2132H42.4125V5.80029Z" fill="#263238"/>
<path d="M41.9652 31.2465H41.2747C41.0276 31.2465 40.8271 31.0552 40.8271 30.8194V27.4906C40.8271 27.2548 41.0276 27.0635 41.2747 27.0635H41.9652C42.2123 27.0635 42.4128 27.2548 42.4128 27.4906V30.8194C42.4124 31.0552 42.2123 31.2465 41.9652 31.2465Z" fill="#92E3A9" stroke="#263238" stroke-miterlimit="10" stroke-linecap="round" stroke-linejoin="round"/>
<path d="M119.701 8.72705H45.7502V55.1968H119.701V8.72705Z" fill="#263238"/>
<path d="M78.5984 28.0232V35.901L86.8533 31.9621L78.5984 28.0232Z" fill="#14B8A6" stroke="#263238" stroke-miterlimit="10" stroke-linecap="round" stroke-linejoin="round"/>
<path opacity="0.5" d="M26.8461 8.11475H18.9512V13.0758H26.8461V8.11475Z" fill="black"/>
<path d="M22.0261 9.76294V11.4275L23.7703 10.5951L22.0261 9.76294Z" fill="#263238"/>
<g opacity="0.5">
<path d="M18.7456 8.11475H18.1985V8.54984H18.7456V8.11475Z" fill="black"/>
<path d="M18.7456 8.8689H18.1985V9.30399H18.7456V8.8689Z" fill="black"/>
<path d="M18.7456 9.62329H18.1985V10.0584H18.7456V9.62329Z" fill="black"/>
<path d="M18.7456 10.3777H18.1985V10.8128H18.7456V10.3777Z" fill="black"/>
<path d="M18.7456 11.1321H18.1985V11.5672H18.7456V11.1321Z" fill="black"/>
<path d="M18.7456 11.886H18.1985V12.3211H18.7456V11.886Z" fill="black"/>
<path d="M18.7456 12.6404H18.1985V13.0755H18.7456V12.6404Z" fill="black"/>
<path d="M27.5979 8.11475H27.0508V8.54984H27.5979V8.11475Z" fill="black"/>
<path d="M27.5979 8.8689H27.0508V9.30399H27.5979V8.8689Z" fill="black"/>
<path d="M27.5979 9.62329H27.0508V10.0584H27.5979V9.62329Z" fill="black"/>
<path d="M27.5979 10.3777H27.0508V10.8128H27.5979V10.3777Z" fill="black"/>
<path d="M27.5979 11.1321H27.0508V11.5672H27.5979V11.1321Z" fill="black"/>
<path d="M27.5979 11.886H27.0508V12.3211H27.5979V11.886Z" fill="black"/>
<path d="M27.5979 12.6404H27.0508V13.0755H27.5979V12.6404Z" fill="black"/>
</g>
<path d="M20.7305 14.2593H25.0663" stroke="#263238" stroke-miterlimit="10" stroke-linecap="round" stroke-linejoin="round"/>
<path opacity="0.5" d="M37.9227 8.11475H30.0278V13.0758H37.9227V8.11475Z" fill="black"/>
<path d="M33.1028 9.76294V11.4275L34.8473 10.5951L33.1028 9.76294Z" fill="#263238"/>
<g opacity="0.5">
<path d="M29.8227 8.11475H29.2756V8.54984H29.8227V8.11475Z" fill="black"/>
<path d="M29.8227 8.8689H29.2756V9.30399H29.8227V8.8689Z" fill="black"/>
<path d="M29.8227 9.62329H29.2756V10.0584H29.8227V9.62329Z" fill="black"/>
<path d="M29.8227 10.3777H29.2756V10.8128H29.8227V10.3777Z" fill="black"/>
<path d="M29.8227 11.1321H29.2756V11.5672H29.8227V11.1321Z" fill="black"/>
<path d="M29.8227 11.886H29.2756V12.3211H29.8227V11.886Z" fill="black"/>
<path d="M29.8227 12.6404H29.2756V13.0755H29.8227V12.6404Z" fill="black"/>
<path d="M38.6748 8.11475H38.1277V8.54984H38.6748V8.11475Z" fill="black"/>
<path d="M38.6748 8.8689H38.1277V9.30399H38.6748V8.8689Z" fill="black"/>
<path d="M38.6748 9.62329H38.1277V10.0584H38.6748V9.62329Z" fill="black"/>
<path d="M38.6748 10.3777H38.1277V10.8128H38.6748V10.3777Z" fill="black"/>
<path d="M38.6748 11.1321H38.1277V11.5672H38.6748V11.1321Z" fill="black"/>
<path d="M38.6748 11.886H38.1277V12.3211H38.6748V11.886Z" fill="black"/>
<path d="M38.6748 12.6404H38.1277V13.0755H38.6748V12.6404Z" fill="black"/>
</g>
<path d="M31.8074 14.2593H36.1432" stroke="#263238" stroke-miterlimit="10" stroke-linecap="round" stroke-linejoin="round"/>
<path opacity="0.5" d="M26.8461 16.5498H18.9512V21.5108H26.8461V16.5498Z" fill="black"/>
<path d="M22.0261 18.198V19.8626L23.7703 19.0304L22.0261 18.198Z" fill="#263238"/>
<g opacity="0.5">
<path d="M18.7456 16.5498H18.1985V16.9849H18.7456V16.5498Z" fill="black"/>
<path d="M18.7456 17.3042H18.1985V17.7393H18.7456V17.3042Z" fill="black"/>
<path d="M18.7456 18.0586H18.1985V18.4937H18.7456V18.0586Z" fill="black"/>
<path d="M18.7456 18.813H18.1985V19.2481H18.7456V18.813Z" fill="black"/>
<path d="M18.7456 19.5671H18.1985V20.0022H18.7456V19.5671Z" fill="black"/>
<path d="M18.7456 20.3215H18.1985V20.7566H18.7456V20.3215Z" fill="black"/>
<path d="M18.7456 21.0757H18.1985V21.5108H18.7456V21.0757Z" fill="black"/>
<path d="M27.5979 16.5498H27.0508V16.9849H27.5979V16.5498Z" fill="black"/>
<path d="M27.5979 17.3042H27.0508V17.7393H27.5979V17.3042Z" fill="black"/>
<path d="M27.5979 18.0586H27.0508V18.4937H27.5979V18.0586Z" fill="black"/>
<path d="M27.5979 18.813H27.0508V19.2481H27.5979V18.813Z" fill="black"/>
<path d="M27.5979 19.5671H27.0508V20.0022H27.5979V19.5671Z" fill="black"/>
<path d="M27.5979 20.3215H27.0508V20.7566H27.5979V20.3215Z" fill="black"/>
<path d="M27.5979 21.0757H27.0508V21.5108H27.5979V21.0757Z" fill="black"/>
</g>
<path d="M20.7305 22.6946H25.0663" stroke="#263238" stroke-miterlimit="10" stroke-linecap="round" stroke-linejoin="round"/>
<path opacity="0.5" d="M37.9227 16.5498H30.0278V21.5108H37.9227V16.5498Z" fill="black"/>
<path d="M33.1028 18.198V19.8626L34.8473 19.0304L33.1028 18.198Z" fill="#263238"/>
<g opacity="0.5">
<path d="M29.8227 16.5498H29.2756V16.9849H29.8227V16.5498Z" fill="black"/>
<path d="M29.8227 17.3042H29.2756V17.7393H29.8227V17.3042Z" fill="black"/>
<path d="M29.8227 18.0586H29.2756V18.4937H29.8227V18.0586Z" fill="black"/>
<path d="M29.8227 18.813H29.2756V19.2481H29.8227V18.813Z" fill="black"/>
<path d="M29.8227 19.5671H29.2756V20.0022H29.8227V19.5671Z" fill="black"/>
<path d="M29.8227 20.3215H29.2756V20.7566H29.8227V20.3215Z" fill="black"/>
<path d="M29.8227 21.0757H29.2756V21.5108H29.8227V21.0757Z" fill="black"/>
<path d="M38.6748 16.5498H38.1277V16.9849H38.6748V16.5498Z" fill="black"/>
<path d="M38.6748 17.3042H38.1277V17.7393H38.6748V17.3042Z" fill="black"/>
<path d="M38.6748 18.0586H38.1277V18.4937H38.6748V18.0586Z" fill="black"/>
<path d="M38.6748 18.813H38.1277V19.2481H38.6748V18.813Z" fill="black"/>
<path d="M38.6748 19.5671H38.1277V20.0022H38.6748V19.5671Z" fill="black"/>
<path d="M38.6748 20.3215H38.1277V20.7566H38.6748V20.3215Z" fill="black"/>
<path d="M38.6748 21.0757H38.1277V21.5108H38.6748V21.0757Z" fill="black"/>
</g>
<path d="M31.8074 22.6946H36.1432" stroke="#263238" stroke-miterlimit="10" stroke-linecap="round" stroke-linejoin="round"/>
<path opacity="0.5" d="M26.8461 24.9854H18.9512V29.9464H26.8461V24.9854Z" fill="black"/>
<path d="M22.0261 26.6335V28.2981L23.7703 27.4657L22.0261 26.6335Z" fill="#263238"/>
<g opacity="0.5">
<path d="M18.7456 24.9854H18.1985V25.4204H18.7456V24.9854Z" fill="black"/>
<path d="M18.7456 25.7397H18.1985V26.1748H18.7456V25.7397Z" fill="black"/>
<path d="M18.7456 26.4937H18.1985V26.9287H18.7456V26.4937Z" fill="black"/>
<path d="M18.7456 27.248H18.1985V27.6831H18.7456V27.248Z" fill="black"/>
<path d="M18.7456 28.0024H18.1985V28.4375H18.7456V28.0024Z" fill="black"/>
<path d="M18.7456 28.7568H18.1985V29.1919H18.7456V28.7568Z" fill="black"/>
<path d="M18.7456 29.511H18.1985V29.9461H18.7456V29.511Z" fill="black"/>
<path d="M27.5979 24.9854H27.0508V25.4204H27.5979V24.9854Z" fill="black"/>
<path d="M27.5979 25.7397H27.0508V26.1748H27.5979V25.7397Z" fill="black"/>
<path d="M27.5979 26.4937H27.0508V26.9287H27.5979V26.4937Z" fill="black"/>
<path d="M27.5979 27.248H27.0508V27.6831H27.5979V27.248Z" fill="black"/>
<path d="M27.5979 28.0024H27.0508V28.4375H27.5979V28.0024Z" fill="black"/>
<path d="M27.5979 28.7568H27.0508V29.1919H27.5979V28.7568Z" fill="black"/>
<path d="M27.5979 29.511H27.0508V29.9461H27.5979V29.511Z" fill="black"/>
</g>
<path d="M20.7305 31.1296H25.0663" stroke="#263238" stroke-miterlimit="10" stroke-linecap="round" stroke-linejoin="round"/>
<path opacity="0.5" d="M37.9227 24.9854H30.0278V29.9464H37.9227V24.9854Z" fill="black"/>
<path d="M33.1028 26.6335V28.2981L34.8473 27.4657L33.1028 26.6335Z" fill="#263238"/>
<g opacity="0.5">
<path d="M29.8227 24.9854H29.2756V25.4204H29.8227V24.9854Z" fill="black"/>
<path d="M29.8227 25.7397H29.2756V26.1748H29.8227V25.7397Z" fill="black"/>
<path d="M29.8227 26.4937H29.2756V26.9287H29.8227V26.4937Z" fill="black"/>
<path d="M29.8227 27.248H29.2756V27.6831H29.8227V27.248Z" fill="black"/>
<path d="M29.8227 28.0024H29.2756V28.4375H29.8227V28.0024Z" fill="black"/>
<path d="M29.8227 28.7568H29.2756V29.1919H29.8227V28.7568Z" fill="black"/>
<path d="M29.8227 29.511H29.2756V29.9461H29.8227V29.511Z" fill="black"/>
<path d="M38.6748 24.9854H38.1277V25.4204H38.6748V24.9854Z" fill="black"/>
<path d="M38.6748 25.7397H38.1277V26.1748H38.6748V25.7397Z" fill="black"/>
<path d="M38.6748 26.4937H38.1277V26.9287H38.6748V26.4937Z" fill="black"/>
<path d="M38.6748 27.248H38.1277V27.6831H38.6748V27.248Z" fill="black"/>
<path d="M38.6748 28.0024H38.1277V28.4375H38.6748V28.0024Z" fill="black"/>
<path d="M38.6748 28.7568H38.1277V29.1919H38.6748V28.7568Z" fill="black"/>
<path d="M38.6748 29.511H38.1277V29.9461H38.6748V29.511Z" fill="black"/>
</g>
<path d="M31.8074 31.1296H36.1432" stroke="#263238" stroke-miterlimit="10" stroke-linecap="round" stroke-linejoin="round"/>
<path opacity="0.5" d="M26.8461 33.4207H18.9512V38.3817H26.8461V33.4207Z" fill="black"/>
<path d="M22.0261 35.0686V36.7335L23.7703 35.901L22.0261 35.0686Z" fill="#263238"/>
<g opacity="0.5">
<path d="M18.7456 33.4207H18.1985V33.8558H18.7456V33.4207Z" fill="black"/>
<path d="M18.7456 34.1748H18.1985V34.6099H18.7456V34.1748Z" fill="black"/>
<path d="M18.7456 34.9292H18.1985V35.3643H18.7456V34.9292Z" fill="black"/>
<path d="M18.7456 35.6836H18.1985V36.1187H18.7456V35.6836Z" fill="black"/>
<path d="M18.7456 36.4375H18.1985V36.8726H18.7456V36.4375Z" fill="black"/>
<path d="M18.7456 37.1919H18.1985V37.627H18.7456V37.1919Z" fill="black"/>
<path d="M18.7456 37.9463H18.1985V38.3814H18.7456V37.9463Z" fill="black"/>
<path d="M27.5979 33.4207H27.0508V33.8558H27.5979V33.4207Z" fill="black"/>
<path d="M27.5979 34.1748H27.0508V34.6099H27.5979V34.1748Z" fill="black"/>
<path d="M27.5979 34.9292H27.0508V35.3643H27.5979V34.9292Z" fill="black"/>
<path d="M27.5979 35.6836H27.0508V36.1187H27.5979V35.6836Z" fill="black"/>
<path d="M27.5979 36.4375H27.0508V36.8726H27.5979V36.4375Z" fill="black"/>
<path d="M27.5979 37.1919H27.0508V37.627H27.5979V37.1919Z" fill="black"/>
<path d="M27.5979 37.9463H27.0508V38.3814H27.5979V37.9463Z" fill="black"/>
</g>
<path d="M20.7305 39.5652H25.0663" stroke="#263238" stroke-miterlimit="10" stroke-linecap="round" stroke-linejoin="round"/>
<path opacity="0.5" d="M37.9227 33.4207H30.0278V38.3817H37.9227V33.4207Z" fill="black"/>
<path d="M33.1028 35.0686V36.7335L34.8473 35.901L33.1028 35.0686Z" fill="#263238"/>
<g opacity="0.5">
<path d="M29.8227 33.4207H29.2756V33.8558H29.8227V33.4207Z" fill="black"/>
<path d="M29.8227 34.1748H29.2756V34.6099H29.8227V34.1748Z" fill="black"/>
<path d="M29.8227 34.9292H29.2756V35.3643H29.8227V34.9292Z" fill="black"/>
<path d="M29.8227 35.6836H29.2756V36.1187H29.8227V35.6836Z" fill="black"/>
<path d="M29.8227 36.4375H29.2756V36.8726H29.8227V36.4375Z" fill="black"/>
<path d="M29.8227 37.1919H29.2756V37.627H29.8227V37.1919Z" fill="black"/>
<path d="M29.8227 37.9463H29.2756V38.3814H29.8227V37.9463Z" fill="black"/>
<path d="M38.6748 33.4207H38.1277V33.8558H38.6748V33.4207Z" fill="black"/>
<path d="M38.6748 34.1748H38.1277V34.6099H38.6748V34.1748Z" fill="black"/>
<path d="M38.6748 34.9292H38.1277V35.3643H38.6748V34.9292Z" fill="black"/>
<path d="M38.6748 35.6836H38.1277V36.1187H38.6748V35.6836Z" fill="black"/>
<path d="M38.6748 36.4375H38.1277V36.8726H38.6748V36.4375Z" fill="black"/>
<path d="M38.6748 37.1919H38.1277V37.627H38.6748V37.1919Z" fill="black"/>
<path d="M38.6748 37.9463H38.1277V38.3814H38.6748V37.9463Z" fill="black"/>
</g>
<path d="M31.8074 39.5652H36.1432" stroke="#263238" stroke-miterlimit="10" stroke-linecap="round" stroke-linejoin="round"/>
<path opacity="0.5" d="M26.8461 41.8557H18.9512V46.8168H26.8461V41.8557Z" fill="black"/>
<path d="M22.0261 43.5039V45.1685L23.7703 44.336L22.0261 43.5039Z" fill="#263238"/>
<g opacity="0.5">
<path d="M18.7456 41.8557H18.1985V42.2908H18.7456V41.8557Z" fill="black"/>
<path d="M18.7456 42.6101H18.1985V43.0452H18.7456V42.6101Z" fill="black"/>
<path d="M18.7456 43.3645H18.1985V43.7996H18.7456V43.3645Z" fill="black"/>
<path d="M18.7456 44.1187H18.1985V44.5537H18.7456V44.1187Z" fill="black"/>
<path d="M18.7456 44.873H18.1985V45.3081H18.7456V44.873Z" fill="black"/>
<path d="M18.7456 45.6272H18.1985V46.0623H18.7456V45.6272Z" fill="black"/>
<path d="M18.7456 46.3816H18.1985V46.8167H18.7456V46.3816Z" fill="black"/>
<path d="M27.5979 41.8557H27.0508V42.2908H27.5979V41.8557Z" fill="black"/>
<path d="M27.5979 42.6101H27.0508V43.0452H27.5979V42.6101Z" fill="black"/>
<path d="M27.5979 43.3645H27.0508V43.7996H27.5979V43.3645Z" fill="black"/>
<path d="M27.5979 44.1187H27.0508V44.5537H27.5979V44.1187Z" fill="black"/>
<path d="M27.5979 44.873H27.0508V45.3081H27.5979V44.873Z" fill="black"/>
<path d="M27.5979 45.6272H27.0508V46.0623H27.5979V45.6272Z" fill="black"/>
<path d="M27.5979 46.3816H27.0508V46.8167H27.5979V46.3816Z" fill="black"/>
</g>
<path d="M20.7305 48.0005H25.0663" stroke="#263238" stroke-miterlimit="10" stroke-linecap="round" stroke-linejoin="round"/>
<path opacity="0.5" d="M37.9227 41.8557H30.0278V46.8168H37.9227V41.8557Z" fill="black"/>
<path d="M33.1028 43.5039V45.1685L34.8473 44.336L33.1028 43.5039Z" fill="#263238"/>
<g opacity="0.5">
<path d="M29.8227 41.8557H29.2756V42.2908H29.8227V41.8557Z" fill="black"/>
<path d="M29.8227 42.6101H29.2756V43.0452H29.8227V42.6101Z" fill="black"/>
<path d="M29.8227 43.3645H29.2756V43.7996H29.8227V43.3645Z" fill="black"/>
<path d="M29.8227 44.1187H29.2756V44.5537H29.8227V44.1187Z" fill="black"/>
<path d="M29.8227 44.873H29.2756V45.3081H29.8227V44.873Z" fill="black"/>
<path d="M29.8227 45.6272H29.2756V46.0623H29.8227V45.6272Z" fill="black"/>
<path d="M29.8227 46.3816H29.2756V46.8167H29.8227V46.3816Z" fill="black"/>
<path d="M38.6748 41.8557H38.1277V42.2908H38.6748V41.8557Z" fill="black"/>
<path d="M38.6748 42.6101H38.1277V43.0452H38.6748V42.6101Z" fill="black"/>
<path d="M38.6748 43.3645H38.1277V43.7996H38.6748V43.3645Z" fill="black"/>
<path d="M38.6748 44.1187H38.1277V44.5537H38.6748V44.1187Z" fill="black"/>
<path d="M38.6748 44.873H38.1277V45.3081H38.6748V44.873Z" fill="black"/>
<path d="M38.6748 45.6272H38.1277V46.0623H38.6748V45.6272Z" fill="black"/>
<path d="M38.6748 46.3816H38.1277V46.8167H38.6748V46.3816Z" fill="black"/>
</g>
<path d="M31.8074 48.0005H36.1432" stroke="#263238" stroke-miterlimit="10" stroke-linecap="round" stroke-linejoin="round"/>
<path opacity="0.5" d="M26.8461 50.2913H18.9512V55.2523H26.8461V50.2913Z" fill="black"/>
<path d="M22.0261 51.9392V53.6041L23.7703 52.7717L22.0261 51.9392Z" fill="#263238"/>
<g opacity="0.5">
<path d="M18.7456 50.2913H18.1985V50.7264H18.7456V50.2913Z" fill="black"/>
<path d="M18.7456 51.0454H18.1985V51.4805H18.7456V51.0454Z" fill="black"/>
<path d="M18.7456 51.7996H18.1985V52.2347H18.7456V51.7996Z" fill="black"/>
<path d="M18.7456 52.554H18.1985V52.9891H18.7456V52.554Z" fill="black"/>
<path d="M18.7456 53.3083H18.1985V53.7434H18.7456V53.3083Z" fill="black"/>
<path d="M18.7456 54.0625H18.1985V54.4976H18.7456V54.0625Z" fill="black"/>
<path d="M18.7456 54.8169H18.1985V55.252H18.7456V54.8169Z" fill="black"/>
<path d="M27.5979 50.2913H27.0508V50.7264H27.5979V50.2913Z" fill="black"/>
<path d="M27.5979 51.0454H27.0508V51.4805H27.5979V51.0454Z" fill="black"/>
<path d="M27.5979 51.7996H27.0508V52.2347H27.5979V51.7996Z" fill="black"/>
<path d="M27.5979 52.554H27.0508V52.9891H27.5979V52.554Z" fill="black"/>
<path d="M27.5979 53.3083H27.0508V53.7434H27.5979V53.3083Z" fill="black"/>
<path d="M27.5979 54.0625H27.0508V54.4976H27.5979V54.0625Z" fill="black"/>
<path d="M27.5979 54.8169H27.0508V55.252H27.5979V54.8169Z" fill="black"/>
</g>
<path d="M20.7305 56.4358H25.0663" stroke="#263238" stroke-miterlimit="10" stroke-linecap="round" stroke-linejoin="round"/>
<path opacity="0.5" d="M37.9227 50.2913H30.0278V55.2523H37.9227V50.2913Z" fill="black"/>
<path d="M33.1028 51.9392V53.6041L34.8473 52.7717L33.1028 51.9392Z" fill="#263238"/>
<g opacity="0.5">
<path d="M29.8227 50.2913H29.2756V50.7264H29.8227V50.2913Z" fill="black"/>
<path d="M29.8227 51.0454H29.2756V51.4805H29.8227V51.0454Z" fill="black"/>
<path d="M29.8227 51.7996H29.2756V52.2347H29.8227V51.7996Z" fill="black"/>
<path d="M29.8227 52.554H29.2756V52.9891H29.8227V52.554Z" fill="black"/>
<path d="M29.8227 53.3083H29.2756V53.7434H29.8227V53.3083Z" fill="black"/>
<path d="M29.8227 54.0625H29.2756V54.4976H29.8227V54.0625Z" fill="black"/>
<path d="M29.8227 54.8169H29.2756V55.252H29.8227V54.8169Z" fill="black"/>
<path d="M38.6748 50.2913H38.1277V50.7264H38.6748V50.2913Z" fill="black"/>
<path d="M38.6748 51.0454H38.1277V51.4805H38.6748V51.0454Z" fill="black"/>
<path d="M38.6748 51.7996H38.1277V52.2347H38.6748V51.7996Z" fill="black"/>
<path d="M38.6748 52.554H38.1277V52.9891H38.6748V52.554Z" fill="black"/>
<path d="M38.6748 53.3083H38.1277V53.7434H38.6748V53.3083Z" fill="black"/>
<path d="M38.6748 54.0625H38.1277V54.4976H38.6748V54.0625Z" fill="black"/>
<path d="M38.6748 54.8169H38.1277V55.252H38.6748V54.8169Z" fill="black"/>
</g>
<path d="M31.8074 56.4358H36.1432" stroke="#263238" stroke-miterlimit="10" stroke-linecap="round" stroke-linejoin="round"/>
<path opacity="0.5" d="M26.8461 58.7263H18.9512V63.6874H26.8461V58.7263Z" fill="black"/>
<path d="M22.0261 60.3745V62.0391L23.7703 61.207L22.0261 60.3745Z" fill="#263238"/>
<g opacity="0.5">
<path d="M18.7456 58.7263H18.1985V59.1614H18.7456V58.7263Z" fill="black"/>
<path d="M18.7456 59.4807H18.1985V59.9158H18.7456V59.4807Z" fill="black"/>
<path d="M18.7456 60.2351H18.1985V60.6702H18.7456V60.2351Z" fill="black"/>
<path d="M18.7456 60.9895H18.1985V61.4246H18.7456V60.9895Z" fill="black"/>
<path d="M18.7456 61.7437H18.1985V62.1788H18.7456V61.7437Z" fill="black"/>
<path d="M18.7456 62.498H18.1985V62.9331H18.7456V62.498Z" fill="black"/>
<path d="M18.7456 63.2522H18.1985V63.6873H18.7456V63.2522Z" fill="black"/>
<path d="M27.5979 58.7263H27.0508V59.1614H27.5979V58.7263Z" fill="black"/>
<path d="M27.5979 59.4807H27.0508V59.9158H27.5979V59.4807Z" fill="black"/>
<path d="M27.5979 60.2351H27.0508V60.6702H27.5979V60.2351Z" fill="black"/>
<path d="M27.5979 60.9895H27.0508V61.4246H27.5979V60.9895Z" fill="black"/>
<path d="M27.5979 61.7437H27.0508V62.1788H27.5979V61.7437Z" fill="black"/>
<path d="M27.5979 62.498H27.0508V62.9331H27.5979V62.498Z" fill="black"/>
<path d="M27.5979 63.2522H27.0508V63.6873H27.5979V63.2522Z" fill="black"/>
</g>
<path d="M20.7305 64.8711H25.0663" stroke="#263238" stroke-miterlimit="10" stroke-linecap="round" stroke-linejoin="round"/>
<path opacity="0.5" d="M37.9227 58.7263H30.0278V63.6874H37.9227V58.7263Z" fill="black"/>
<path d="M33.1028 60.3745V62.0391L34.8473 61.207L33.1028 60.3745Z" fill="#263238"/>
<g opacity="0.5">
<path d="M29.8227 58.7263H29.2756V59.1614H29.8227V58.7263Z" fill="black"/>
<path d="M29.8227 59.4807H29.2756V59.9158H29.8227V59.4807Z" fill="black"/>
<path d="M29.8227 60.2351H29.2756V60.6702H29.8227V60.2351Z" fill="black"/>
<path d="M29.8227 60.9895H29.2756V61.4246H29.8227V60.9895Z" fill="black"/>
<path d="M29.8227 61.7437H29.2756V62.1788H29.8227V61.7437Z" fill="black"/>
<path d="M29.8227 62.498H29.2756V62.9331H29.8227V62.498Z" fill="black"/>
<path d="M29.8227 63.2522H29.2756V63.6873H29.8227V63.2522Z" fill="black"/>
<path d="M38.6748 58.7263H38.1277V59.1614H38.6748V58.7263Z" fill="black"/>
<path d="M38.6748 59.4807H38.1277V59.9158H38.6748V59.4807Z" fill="black"/>
<path d="M38.6748 60.2351H38.1277V60.6702H38.6748V60.2351Z" fill="black"/>
<path d="M38.6748 60.9895H38.1277V61.4246H38.6748V60.9895Z" fill="black"/>
<path d="M38.6748 61.7437H38.1277V62.1788H38.6748V61.7437Z" fill="black"/>
<path d="M38.6748 62.498H38.1277V62.9331H38.6748V62.498Z" fill="black"/>
<path d="M38.6748 63.2522H38.1277V63.6873H38.6748V63.2522Z" fill="black"/>
</g>
<path d="M31.8074 64.8711H36.1432" stroke="#263238" stroke-miterlimit="10" stroke-linecap="round" stroke-linejoin="round"/>
<path d="M125.022 75.2746C101.227 75.2746 37.3795 75.2746 14.088 75.2746C10.8917 75.2746 1.37427 73.9856 1.37427 73.9856H137.736C137.736 73.9856 128.218 75.2746 125.022 75.2746Z" fill="#999999" stroke="#263238" stroke-miterlimit="10" stroke-linecap="round" stroke-linejoin="round"/>
<path d="M137.736 73.9859H1.37418C0.925313 73.9859 0.857263 73.3694 1.29607 73.2799L14.088 70.6699H125.022L137.814 73.2799C138.253 73.3694 138.185 73.9859 137.736 73.9859Z" fill="#BFBFBF" stroke="#263238" stroke-miterlimit="10" stroke-linecap="round" stroke-linejoin="round"/>
<path d="M130.286 72.3281H8.82349L14.3493 71.0872H124.761L130.286 72.3281Z" stroke="#263238" stroke-miterlimit="10" stroke-linecap="round" stroke-linejoin="round"/>
<path d="M144 63.8453C144 64.4906 143.886 65.0892 143.688 65.5857C143.36 66.4201 142.801 66.9662 142.167 66.9662H112.367L111.502 62.6885L111.824 62.5583L115.198 61.212C116.004 60.8896 116.869 60.7219 117.743 60.7219H142.167C142.667 60.7219 143.119 61.0633 143.451 61.6155C143.789 62.1827 144 62.9703 144 63.8453Z" fill="#50DAB6"/>
<mask id="mask0_5676_40314" style="mask-type:luminance" maskUnits="userSpaceOnUse" x="111" y="60" width="33" height="7">
<path d="M144 63.8453C144 64.4906 143.886 65.0892 143.688 65.5857C143.36 66.4201 142.801 66.9662 142.167 66.9662H112.367L111.502 62.6885L111.824 62.5583L115.198 61.212C116.004 60.8896 116.869 60.7219 117.743 60.7219H142.167C142.667 60.7219 143.119 61.0633 143.451 61.6155C143.789 62.1827 144 62.9703 144 63.8453Z" fill="white"/>
</mask>
<g mask="url(#mask0_5676_40314)">
<path opacity="0.4" d="M143.451 61.6149H121.244C120.876 61.6149 120.515 61.6923 120.181 61.8414L116.53 63.4577L111.824 62.558L115.198 61.2118C116.004 60.8893 116.869 60.7217 117.743 60.7217H142.167C142.667 60.7214 143.119 61.0627 143.451 61.6149Z" fill="white"/>
</g>
<path opacity="0.5" d="M143.254 65.6182C142.926 66.4525 142.367 66.9986 141.733 66.9986H122.022C119.308 65.3296 117 63.8749 117 63.8749L118.127 63.285C118.484 63.0981 118.884 63.0002 119.291 63.0002H136.854C137.147 63.0002 137.426 63.1119 137.631 63.3106L139.516 65.1066C139.857 65.4355 140.322 65.6185 140.803 65.6185L143.254 65.6182Z" fill="black" fill-opacity="0.7"/>
<path d="M144 63.8453C144 64.4906 143.886 65.0892 143.688 65.5857C143.36 66.4201 142.801 66.9662 142.167 66.9662H112.367L111.502 62.6885L111.824 62.5583L115.198 61.212C116.004 60.8896 116.869 60.7219 117.743 60.7219H142.167C142.667 60.7219 143.119 61.0633 143.451 61.6155C143.789 62.1827 144 62.9703 144 63.8453Z" stroke="#263238" stroke-miterlimit="10" stroke-linecap="round" stroke-linejoin="round"/>
<path d="M139.568 60.7212C140.58 60.7212 141.4 62.1193 141.4 63.8443C141.4 65.569 140.58 66.967 139.568 66.967" stroke="#263238" stroke-miterlimit="10" stroke-linecap="round" stroke-linejoin="round"/>
<path d="M115.553 62.1736H102.551V79.6404H115.553C118.26 79.6404 120.455 75.7303 120.455 70.9071C120.455 66.084 118.261 62.1736 115.553 62.1736Z" fill="#50DAB6"/>
<mask id="mask1_5676_40314" style="mask-type:luminance" maskUnits="userSpaceOnUse" x="102" y="62" width="19" height="18">
<path d="M115.553 62.1736H102.551V79.6404H115.553C118.26 79.6404 120.455 75.7303 120.455 70.9071C120.455 66.084 118.261 62.1736 115.553 62.1736Z" fill="white"/>
</mask>
<g mask="url(#mask1_5676_40314)">
<path opacity="0.3" d="M115.553 62.1736H102.551V79.6404H115.553C118.26 79.6404 120.455 75.7303 120.455 70.9071C120.455 66.084 118.261 62.1736 115.553 62.1736Z" fill="#2DD4BF"/>
</g>
<path d="M115.553 62.1736H102.551V79.6404H115.553C118.26 79.6404 120.455 75.7303 120.455 70.9071C120.455 66.084 118.261 62.1736 115.553 62.1736Z" stroke="#263238" stroke-miterlimit="10" stroke-linecap="round" stroke-linejoin="round"/>
<path d="M102.551 79.6407C105.259 79.6407 107.453 75.7306 107.453 70.9071C107.453 66.0837 105.259 62.1736 102.551 62.1736C99.8441 62.1736 97.6494 66.0837 97.6494 70.9071C97.6494 75.7306 99.8441 79.6407 102.551 79.6407Z" fill="#50DAB6" stroke="#263238" stroke-miterlimit="10" stroke-linecap="round" stroke-linejoin="round"/>
<path d="M101.736 79.1081C104.278 79.1081 106.339 75.4364 106.339 70.9072C106.339 66.378 104.278 62.7063 101.736 62.7063C99.1939 62.7063 97.1331 66.378 97.1331 70.9072C97.1331 75.4364 99.1939 79.1081 101.736 79.1081Z" fill="#50DAB6"/>
<mask id="mask2_5676_40314" style="mask-type:luminance" maskUnits="userSpaceOnUse" x="97" y="62" width="10" height="18">
<path d="M101.736 79.1081C104.278 79.1081 106.339 75.4364 106.339 70.9072C106.339 66.378 104.278 62.7063 101.736 62.7063C99.1939 62.7063 97.1331 66.378 97.1331 70.9072C97.1331 75.4364 99.1939 79.1081 101.736 79.1081Z" fill="white"/>
</mask>
<g mask="url(#mask2_5676_40314)">
<path opacity="0.3" d="M101.736 79.1081C104.278 79.1081 106.339 75.4364 106.339 70.9072C106.339 66.378 104.278 62.7063 101.736 62.7063C99.1939 62.7063 97.1331 66.378 97.1331 70.9072C97.1331 75.4364 99.1939 79.1081 101.736 79.1081Z" fill="black" fill-opacity="0.7"/>
</g>
<path d="M101.736 79.1081C104.278 79.1081 106.339 75.4364 106.339 70.9072C106.339 66.378 104.278 62.7063 101.736 62.7063C99.1939 62.7063 97.1331 66.378 97.1331 70.9072C97.1331 75.4364 99.1939 79.1081 101.736 79.1081Z" stroke="#263238" stroke-miterlimit="10" stroke-linecap="round" stroke-linejoin="round"/>
<path d="M100.783 78.6038C102.961 78.6038 104.727 75.1579 104.727 70.9071C104.727 66.6564 102.961 63.2104 100.783 63.2104C98.6055 63.2104 96.8401 66.6564 96.8401 70.9071C96.8401 75.1579 98.6055 78.6038 100.783 78.6038Z" fill="#50DAB6"/>
<mask id="mask3_5676_40314" style="mask-type:luminance" maskUnits="userSpaceOnUse" x="96" y="63" width="9" height="16">
<path d="M100.783 78.6038C102.961 78.6038 104.727 75.1579 104.727 70.9071C104.727 66.6564 102.961 63.2104 100.783 63.2104C98.6055 63.2104 96.8401 66.6564 96.8401 70.9071C96.8401 75.1579 98.6055 78.6038 100.783 78.6038Z" fill="white"/>
</mask>
<g mask="url(#mask3_5676_40314)">
<path opacity="0.4" d="M100.783 78.6038C102.961 78.6038 104.727 75.1579 104.727 70.9071C104.727 66.6564 102.961 63.2104 100.783 63.2104C98.6055 63.2104 96.8401 66.6564 96.8401 70.9071C96.8401 75.1579 98.6055 78.6038 100.783 78.6038Z" fill="white"/>
</g>
<path d="M100.783 78.6038C102.961 78.6038 104.727 75.1579 104.727 70.9071C104.727 66.6564 102.961 63.2104 100.783 63.2104C98.6055 63.2104 96.8401 66.6564 96.8401 70.9071C96.8401 75.1579 98.6055 78.6038 100.783 78.6038Z" stroke="#263238" stroke-miterlimit="10" stroke-linecap="round" stroke-linejoin="round"/>
<path d="M104.063 70.9079C104.063 72.065 103.929 73.1569 103.692 74.1186C103.237 75.9489 102.412 77.2983 101.427 77.7139C101.219 77.8038 101.004 77.8505 100.783 77.8505C98.9727 77.8505 97.5034 74.7421 97.5034 70.9082C97.5034 67.0739 98.9727 63.9626 100.783 63.9626C101.004 63.9626 101.219 64.009 101.427 64.0993C102.412 64.5148 103.237 65.8675 103.692 67.6978C103.93 68.6588 104.063 69.7507 104.063 70.9079Z" fill="#263238" stroke="#263238" stroke-miterlimit="10" stroke-linecap="round" stroke-linejoin="round"/>
<path d="M104.063 70.9085C104.063 74.2744 102.929 77.0818 101.427 77.7146C99.9249 77.0818 98.7905 74.2744 98.7905 70.9085C98.7905 67.5429 99.9249 64.7324 101.427 64.0996C102.929 64.7324 104.063 67.5429 104.063 70.9085Z" fill="#757575" stroke="#263238" stroke-miterlimit="10" stroke-linecap="round" stroke-linejoin="round"/>
<path d="M102.711 74.1184H100.76C100.305 74.1184 99.938 73.7678 99.938 73.3337V68.482C99.938 68.0479 100.305 67.6973 100.76 67.6973H102.711C102.256 67.6973 101.888 68.0479 101.888 68.482V73.3337C101.888 73.7678 102.256 74.1184 102.711 74.1184Z" fill="#263238" stroke="#263238" stroke-miterlimit="10" stroke-linecap="round" stroke-linejoin="round"/>
<path d="M102.711 67.697H103.693" stroke="#263238" stroke-miterlimit="10" stroke-linecap="round" stroke-linejoin="round"/>
<path d="M102.711 74.1187H103.693" stroke="#263238" stroke-miterlimit="10" stroke-linecap="round" stroke-linejoin="round"/>
<path d="M138.169 64.7511V82.5042C138.169 84.4337 136.531 86.0003 134.505 86.0003H109.132C107.825 86.0003 106.681 85.349 106.031 84.3687C105.674 83.829 105.466 83.1898 105.466 82.5042V79.6409H107.101C109.808 79.6409 112.002 75.7324 112.002 70.9086C112.002 67.9212 111.161 65.2815 109.876 63.7087H137.076C137.681 63.7087 138.169 64.1742 138.169 64.7511Z" fill="#50DAB6"/>
<mask id="mask4_5676_40314" style="mask-type:luminance" maskUnits="userSpaceOnUse" x="105" y="63" width="34" height="24">
<path d="M138.169 64.7511V82.5042C138.169 84.4337 136.531 86.0003 134.505 86.0003H109.132C107.825 86.0003 106.681 85.349 106.031 84.3687C105.674 83.829 105.466 83.1898 105.466 82.5042V79.6409H107.101C109.808 79.6409 112.002 75.7324 112.002 70.9086C112.002 67.9212 111.161 65.2815 109.876 63.7087H137.076C137.681 63.7087 138.169 64.1742 138.169 64.7511Z" fill="white"/>
</mask>
<g mask="url(#mask4_5676_40314)">
<path opacity="0.5" d="M112.002 70.9087V76.4334C112.002 79.2222 110.478 81.803 107.978 83.2456L106.031 84.3685C105.674 83.8288 105.466 83.1896 105.466 82.504V79.6407H107.101C109.808 79.641 112.002 75.7325 112.002 70.9087Z" fill="black" fill-opacity="0.7"/>
</g>
<path opacity="0.3" d="M138.169 64.7511V82.5042C138.169 84.4337 136.531 86.0003 134.505 86.0003H109.132C108.284 86.0003 107.504 85.7274 106.883 85.2651H111.037C112.695 85.2651 114.04 83.9838 114.04 82.4018V65.6104C114.04 64.9433 113.471 64.4036 112.776 64.4036H110.37C110.215 64.1525 110.049 63.9196 109.876 63.7087H137.076C137.681 63.7087 138.169 64.1742 138.169 64.7511Z" fill="#14B8A6"/>
<path d="M138.169 64.7511V82.5042C138.169 84.4337 136.531 86.0003 134.505 86.0003H109.132C107.825 86.0003 106.681 85.349 106.031 84.3687C105.674 83.829 105.466 83.1898 105.466 82.5042V79.6409H107.101C109.808 79.6409 112.002 75.7324 112.002 70.9086C112.002 67.9212 111.161 65.2815 109.876 63.7087H137.076C137.681 63.7087 138.169 64.1742 138.169 64.7511Z" stroke="#263238" stroke-miterlimit="10" stroke-linecap="round" stroke-linejoin="round"/>
<path d="M141.455 73.5486C141.455 76.2814 140.932 79.0177 139.888 81.6138C139.82 81.7844 139.716 81.9334 139.586 82.0576C139.524 82.1164 139.459 82.1692 139.388 82.2159C139.167 82.3618 138.9 82.4453 138.617 82.4453H117.151C116.085 82.4453 115.22 81.6231 115.22 80.6058V66.4914C115.22 65.4769 116.085 64.6519 117.151 64.6519H138.617C138.991 64.6519 139.336 64.7945 139.586 65.0396C139.716 65.1637 139.82 65.3157 139.888 65.4862C140.932 68.0795 141.455 70.8155 141.455 73.5486Z" fill="#50DAB6"/>
<mask id="mask5_5676_40314" style="mask-type:luminance" maskUnits="userSpaceOnUse" x="115" y="64" width="27" height="19">
<path d="M141.455 73.5486C141.455 76.2814 140.932 79.0177 139.888 81.6138C139.82 81.7844 139.716 81.9334 139.586 82.0576C139.524 82.1164 139.459 82.1692 139.388 82.2159C139.167 82.3618 138.9 82.4453 138.617 82.4453H117.151C116.085 82.4453 115.22 81.6231 115.22 80.6058V66.4914C115.22 65.4769 116.085 64.6519 117.151 64.6519H138.617C138.991 64.6519 139.336 64.7945 139.586 65.0396C139.716 65.1637 139.82 65.3157 139.888 65.4862C140.932 68.0795 141.455 70.8155 141.455 73.5486Z" fill="white"/>
</mask>
<g mask="url(#mask5_5676_40314)">
<path opacity="0.4" d="M141.455 73.5487C141.455 76.2815 140.932 79.0178 139.888 81.614C139.82 81.7845 139.716 81.9336 139.586 82.0577H119.183C118.074 82.0577 117.174 81.1984 117.174 80.1407V66.957C117.174 65.899 118.074 65.04 119.183 65.04H139.586C139.716 65.1642 139.82 65.3161 139.888 65.4866C140.932 68.0796 141.455 70.8156 141.455 73.5487Z" fill="#2DD4BF"/>
</g>
<path d="M141.455 73.5486C141.455 76.2814 140.932 79.0177 139.888 81.6138C139.82 81.7844 139.716 81.9334 139.586 82.0576C139.524 82.1164 139.459 82.1692 139.388 82.2159C139.167 82.3618 138.9 82.4453 138.617 82.4453H117.151C116.085 82.4453 115.22 81.6231 115.22 80.6058V66.4914C115.22 65.4769 116.085 64.6519 117.151 64.6519H138.617C138.991 64.6519 139.336 64.7945 139.586 65.0396C139.716 65.1637 139.82 65.3157 139.888 65.4862C140.932 68.0795 141.455 70.8155 141.455 73.5486Z" stroke="#263238" stroke-miterlimit="10" stroke-linecap="round" stroke-linejoin="round"/>
<path d="M122.526 65.0405H119.118C118.065 65.0405 117.211 65.8554 117.211 66.8609V80.2375C117.211 81.2427 118.065 82.0579 119.118 82.0579H122.526" stroke="#263238" stroke-miterlimit="10" stroke-linecap="round" stroke-linejoin="round"/>
<path d="M119.717 76.0113H115.151C114.789 76.0113 114.496 75.7313 114.496 75.3858V71.6677C114.496 71.3222 114.789 71.0422 115.151 71.0422H119.717C120.079 71.0422 120.372 71.3222 120.372 71.6677V75.3858C120.372 75.7313 120.079 76.0113 119.717 76.0113Z" fill="#757575" stroke="#263238" stroke-miterlimit="10" stroke-linecap="round" stroke-linejoin="round"/>
<path opacity="0.4" d="M119.619 71.5425H117.613C117.371 71.5425 117.175 71.7296 117.175 71.9609V75.092C117.175 75.323 117.371 75.5105 117.613 75.5105H119.619C119.873 75.5105 120.079 75.3137 120.079 75.0712V71.9821C120.079 71.7392 119.873 71.5425 119.619 71.5425Z" fill="white"/>
<path d="M119.104 71.5425H117.614C117.372 71.5425 117.175 71.7296 117.175 71.9609V75.092C117.175 75.323 117.372 75.5105 117.614 75.5105H119.104" stroke="#263238" stroke-miterlimit="10" stroke-linecap="round" stroke-linejoin="round"/>
<path d="M133.993 69.0456L134.968 66.3704H135.709L135.969 69.0456H136.29L136.345 69.6115H136.024L136.094 70.3297H135.415L135.345 69.6115H134.048L133.993 69.0456ZM135.29 69.0456L135.147 67.5806H135.135L134.617 69.0456H135.29Z" fill="#263238"/>
<path d="M137.46 68.7515L137.286 69.1136L137.404 70.3296H136.725L136.339 66.3706H137.018L137.185 68.0844H137.198L137.907 66.3706H138.586L137.814 68.1353L138.972 70.33H138.275L137.46 68.7515Z" fill="#263238"/>
<path d="M109.881 85.265H111.039C112.696 85.265 114.039 83.9831 114.039 82.4017V65.6096C114.039 64.9432 113.473 64.4028 112.774 64.4028H111.96" stroke="#263238" stroke-miterlimit="10" stroke-linecap="round" stroke-linejoin="round"/>
<path opacity="0.2" d="M139.976 69.1838H118.416V67.2611C118.416 66.651 118.934 66.1567 119.573 66.1567H138.646C139.017 66.1567 139.347 66.3784 139.471 66.7124C139.686 67.2934 139.976 68.2494 139.976 69.1838Z" fill="white"/>
<path opacity="0.2" d="M105.214 62.7063H115.972L116.872 63.2105H105.728L105.214 62.7063Z" fill="white"/>
</svg>
