<svg width="21" height="21" viewBox="0 0 21 21" fill="none" xmlns="http://www.w3.org/2000/svg">
<path d="M17.5847 3.78123C16.163 2.38264 14.3597 1.43548 12.4013 1.0588C10.4429 0.682113 8.41687 0.892706 6.57782 1.66411C4.73877 2.43552 3.16877 3.73331 2.06514 5.39439C0.96151 7.05546 0.373497 9.0057 0.375003 11C0.375003 15.1925 2.9625 18.7109 7.125 20.1819C7.63405 20.3618 8.17885 20.417 8.71365 20.3429C9.24846 20.2687 9.75766 20.0673 10.1985 19.7556C10.6394 19.4439 10.999 19.0309 11.2472 18.5514C11.4954 18.0719 11.625 17.5399 11.625 17C11.625 16.7016 11.7435 16.4155 11.9545 16.2045C12.1655 15.9935 12.4516 15.875 12.75 15.875H17.0822C17.8479 15.8786 18.5918 15.6202 19.1903 15.1427C19.7889 14.6652 20.2062 13.9973 20.3728 13.25C20.5467 12.4839 20.6313 11.7002 20.625 10.9147C20.6158 9.58357 20.3422 8.26756 19.8203 7.043C19.2984 5.81845 18.5385 4.70975 17.5847 3.78123ZM18.1791 12.7503C18.1232 12.999 17.9839 13.2211 17.7844 13.3797C17.5849 13.5383 17.3371 13.6239 17.0822 13.6222H12.75C11.8549 13.6222 10.9965 13.9777 10.3635 14.6107C9.73058 15.2436 9.375 16.1021 9.375 16.9972C9.3748 17.177 9.33147 17.3542 9.24864 17.5139C9.16582 17.6736 9.04592 17.811 8.899 17.9148C8.75208 18.0186 8.58241 18.0856 8.40424 18.1103C8.22607 18.1349 8.04459 18.1165 7.875 18.0565C6.31407 17.5053 5.00157 16.579 4.08 15.379C3.12267 14.1212 2.61081 12.5807 2.625 11C2.62489 8.92545 3.44337 6.93468 4.90263 5.46015C6.36188 3.98563 8.34403 3.14647 10.4184 3.12498H10.5C12.5745 3.13342 14.5626 3.95672 16.0357 5.41738C17.5088 6.87804 18.3489 8.85907 18.375 10.9334C18.3801 11.5458 18.3144 12.1568 18.1791 12.754V12.7503ZM12 6.12498C12 6.42165 11.912 6.71166 11.7472 6.95833C11.5824 7.20501 11.3481 7.39727 11.074 7.5108C10.7999 7.62433 10.4983 7.65403 10.2074 7.59616C9.9164 7.53828 9.64912 7.39542 9.43934 7.18564C9.22956 6.97586 9.0867 6.70859 9.02882 6.41761C8.97095 6.12664 9.00065 5.82504 9.11418 5.55095C9.22771 5.27687 9.41997 5.0426 9.66665 4.87777C9.91332 4.71295 10.2033 4.62498 10.5 4.62498C10.8978 4.62498 11.2794 4.78301 11.5607 5.06432C11.842 5.34562 12 5.72715 12 6.12498ZM7.875 8.37498C7.875 8.67165 7.78703 8.96166 7.62221 9.20833C7.45739 9.45501 7.22312 9.64727 6.94903 9.7608C6.67494 9.87433 6.37334 9.90403 6.08237 9.84616C5.7914 9.78828 5.52412 9.64542 5.31434 9.43564C5.10456 9.22586 4.9617 8.95859 4.90382 8.66761C4.84595 8.37664 4.87565 8.07504 4.98918 7.80095C5.10272 7.52686 5.29497 7.2926 5.54165 7.12777C5.78832 6.96295 6.07833 6.87498 6.375 6.87498C6.77283 6.87498 7.15436 7.03301 7.43566 7.31432C7.71697 7.59562 7.875 7.97715 7.875 8.37498ZM7.875 13.625C7.875 13.9217 7.78703 14.2117 7.62221 14.4583C7.45739 14.705 7.22312 14.8973 6.94903 15.0108C6.67494 15.1243 6.37334 15.154 6.08237 15.0962C5.7914 15.0383 5.52412 14.8954 5.31434 14.6856C5.10456 14.4759 4.9617 14.2086 4.90382 13.9176C4.84595 13.6266 4.87565 13.325 4.98918 13.051C5.10272 12.7769 5.29497 12.5426 5.54165 12.3778C5.78832 12.213 6.07833 12.125 6.375 12.125C6.77283 12.125 7.15436 12.283 7.43566 12.5643C7.71697 12.8456 7.875 13.2272 7.875 13.625ZM16.125 8.37498C16.125 8.67165 16.037 8.96166 15.8722 9.20833C15.7074 9.45501 15.4731 9.64727 15.199 9.7608C14.9249 9.87433 14.6233 9.90403 14.3324 9.84616C14.0414 9.78828 13.7741 9.64542 13.5643 9.43564C13.3546 9.22586 13.2117 8.95859 13.1538 8.66761C13.0959 8.37664 13.1257 8.07504 13.2392 7.80095C13.3527 7.52686 13.545 7.2926 13.7916 7.12777C14.0383 6.96295 14.3283 6.87498 14.625 6.87498C15.0228 6.87498 15.4044 7.03301 15.6857 7.31432C15.967 7.59562 16.125 7.97715 16.125 8.37498Z" fill="#475569"/>
</svg>
