<svg width="20" height="24" viewBox="0 0 20 24" fill="none" xmlns="http://www.w3.org/2000/svg">
<path d="M16.5329 12.7616C16.5567 10.9125 17.5498 9.16283 19.1251 8.19432C18.1313 6.77497 16.4667 5.87506 14.7348 5.82087C12.8877 5.62699 11.0969 6.92619 10.1557 6.92619C9.19616 6.92619 7.74691 5.84012 6.1863 5.87223C4.15212 5.93795 2.25576 7.09447 1.26609 8.87289C-0.861309 12.5562 0.72554 17.9693 2.76341 20.9466C3.783 22.4045 4.97461 24.033 6.5338 23.9752C8.05957 23.9119 8.62941 23.0023 10.4711 23.0023C12.2958 23.0023 12.8304 23.9752 14.4212 23.9385C16.0585 23.9119 17.09 22.4741 18.0738 21.0024C18.8064 19.9636 19.3701 18.8155 19.7441 17.6007C17.82 16.7869 16.5352 14.8506 16.5329 12.7616Z" fill="black"/>
<path d="M13.5281 3.86287C14.4208 2.79125 14.8605 1.41385 14.754 0.0231934C13.3902 0.166436 12.1304 0.818251 11.2257 1.84876C10.341 2.85563 9.88058 4.20879 9.96763 5.54629C11.3319 5.56034 12.6732 4.92619 13.5281 3.86287Z" fill="black"/>
</svg>
