<svg width="16" height="16" viewBox="0 0 16 16" fill="none" xmlns="http://www.w3.org/2000/svg">
<path fill-rule="evenodd" clip-rule="evenodd" d="M3.44803 8.00006C3.44803 7.48043 3.53428 6.98218 3.6884 6.51493L0.992154 4.45605C0.466654 5.52293 0.170654 6.72518 0.170654 8.00006C0.170654 9.27393 0.466404 10.4753 0.991029 11.5416L3.68578 9.47868C3.53315 9.01356 3.44803 8.51718 3.44803 8.00006Z" fill="#FBBC05"/>
<path fill-rule="evenodd" clip-rule="evenodd" d="M8.18206 3.27275C9.31094 3.27275 10.3306 3.67275 11.1317 4.32725L13.4622 2C12.0421 0.763625 10.2213 0 8.18206 0C5.01606 0 2.29506 1.8105 0.992188 4.456L3.68831 6.51487C4.30956 4.62912 6.08044 3.27275 8.18206 3.27275Z" fill="#EA4335"/>
<path fill-rule="evenodd" clip-rule="evenodd" d="M8.18206 12.7272C6.08056 12.7272 4.30969 11.3709 3.68844 9.48511L0.992188 11.5436C2.29506 14.1895 5.01606 16 8.18206 16C10.1361 16 12.0017 15.3061 13.4018 14.0061L10.8426 12.0276C10.1204 12.4825 9.21106 12.7272 8.18206 12.7272Z" fill="#34A853"/>
<path fill-rule="evenodd" clip-rule="evenodd" d="M15.8293 7.99991C15.8293 7.52716 15.7564 7.01804 15.6471 6.54541H8.18213V9.63629H12.4791C12.2643 10.6902 11.6795 11.5003 10.8426 12.0275L13.4019 14.006C14.8726 12.641 15.8293 10.6075 15.8293 7.99991Z" fill="#4285F4"/>
</svg>
