<svg width="16" height="16" viewBox="0 0 16 16" fill="none" xmlns="http://www.w3.org/2000/svg">
<path d="M7.1875 14.875C7.1875 15.1236 7.08873 15.3621 6.91291 15.5379C6.7371 15.7137 6.49864 15.8125 6.25 15.8125H1.25C1.00136 15.8125 0.762903 15.7137 0.587087 15.5379C0.411272 15.3621 0.3125 15.1236 0.3125 14.875V1.125C0.3125 0.87636 0.411272 0.637903 0.587087 0.462087C0.762903 0.286272 1.00136 0.1875 1.25 0.1875H6.25C6.49864 0.1875 6.7371 0.286272 6.91291 0.462087C7.08873 0.637903 7.1875 0.87636 7.1875 1.125C7.1875 1.37364 7.08873 1.6121 6.91291 1.78791C6.7371 1.96373 6.49864 2.0625 6.25 2.0625H2.1875V13.9375H6.25C6.49864 13.9375 6.7371 14.0363 6.91291 14.2121C7.08873 14.3879 7.1875 14.6264 7.1875 14.875ZM15.6633 7.33672L12.5383 4.21172C12.3622 4.0356 12.1233 3.93665 11.8742 3.93665C11.6251 3.93665 11.3863 4.0356 11.2102 4.21172C11.034 4.38784 10.9351 4.62671 10.9351 4.87578C10.9351 5.12485 11.034 5.36372 11.2102 5.53984L12.7344 7.0625H6.25C6.00136 7.0625 5.7629 7.16127 5.58709 7.33709C5.41127 7.5129 5.3125 7.75136 5.3125 8C5.3125 8.24864 5.41127 8.4871 5.58709 8.66291C5.7629 8.83873 6.00136 8.9375 6.25 8.9375H12.7344L11.2094 10.4617C11.0333 10.6378 10.9343 10.8767 10.9343 11.1258C10.9343 11.3749 11.0333 11.6137 11.2094 11.7898C11.3855 11.966 11.6244 12.0649 11.8734 12.0649C12.1225 12.0649 12.3614 11.966 12.5375 11.7898L15.6625 8.66484C15.7499 8.5778 15.8194 8.47435 15.8667 8.36042C15.9141 8.24649 15.9386 8.12433 15.9386 8.00094C15.9387 7.87755 15.9144 7.75537 15.8672 7.64138C15.8199 7.5274 15.7506 7.42387 15.6633 7.33672Z" fill="white"/>
</svg>
