<svg width="21" height="21" viewBox="0 0 21 21" fill="none" xmlns="http://www.w3.org/2000/svg">
<g id="PaperPlaneTilt">
<path id="Vector" d="M18.4798 2.52031C18.2834 2.32389 18.0382 2.18336 17.7695 2.11319C17.5008 2.04302 17.2182 2.04575 16.9509 2.1211L16.9337 2.12656L1.94072 6.67188C1.63665 6.76007 1.36654 6.93856 1.16618 7.1837C0.965811 7.42884 0.844644 7.72906 0.818723 8.0446C0.792802 8.36015 0.86335 8.67612 1.02102 8.95067C1.1787 9.22522 1.41605 9.4454 1.70166 9.58203L8.23447 12.7656L11.4149 19.3008C11.5404 19.5675 11.7393 19.7928 11.9884 19.9503C12.2376 20.1078 12.5265 20.1909 12.8212 20.1898C12.8657 20.1898 12.911 20.1898 12.9563 20.1844C13.2727 20.16 13.574 20.0391 13.8194 19.8378C14.0648 19.6366 14.2424 19.3649 14.3282 19.0594L18.8735 4.06641C18.8758 4.06084 18.8776 4.05509 18.879 4.04922C18.9544 3.78189 18.9571 3.49931 18.8869 3.23058C18.8167 2.96185 18.6762 2.71668 18.4798 2.52031ZM12.7587 17.7711L10.0735 12.2523L13.6673 8.6625C13.7545 8.5753 13.8237 8.47177 13.8709 8.35783C13.9181 8.24389 13.9423 8.12177 13.9423 7.99844C13.9423 7.87511 13.9181 7.75299 13.8709 7.63905C13.8237 7.52511 13.7545 7.42158 13.6673 7.33438C13.5801 7.24717 13.4766 7.178 13.3626 7.1308C13.2487 7.0836 13.1265 7.05931 13.0032 7.05931C12.8799 7.05931 12.7578 7.0836 12.6438 7.1308C12.5299 7.178 12.4264 7.24717 12.3392 7.33438L8.74541 10.9281L3.229 8.24141L16.9063 4.09375L12.7587 17.7711Z" fill="white"/>
</g>
</svg>
