<svg width="17" height="16" viewBox="0 0 17 16" fill="none" xmlns="http://www.w3.org/2000/svg">
<path d="M14.8562 5.17764L3.86 1.80264L3.85 1.79951C3.66366 1.74516 3.46721 1.73496 3.27624 1.7697C3.08527 1.80445 2.90501 1.8832 2.74975 1.9997C2.59449 2.1162 2.4685 2.26727 2.38176 2.44091C2.29501 2.61456 2.2499 2.80603 2.25 3.00014V12.0001C2.25 12.331 2.38118 12.6484 2.61479 12.8827C2.8484 13.117 3.16538 13.2491 3.49625 13.2501C3.61596 13.25 3.73505 13.2329 3.85 13.1995H3.86L8.75 11.6995V12.2501C8.75 12.5817 8.8817 12.8996 9.11612 13.134C9.35054 13.3684 9.66848 13.5001 10 13.5001H12C12.3315 13.5001 12.6495 13.3684 12.8839 13.134C13.1183 12.8996 13.25 12.5817 13.25 12.2501V10.3164L14.8562 9.82326C15.1139 9.74561 15.3398 9.58728 15.5007 9.37159C15.6616 9.15589 15.749 8.89423 15.75 8.62514V6.37514C15.7489 6.10615 15.6614 5.84463 15.5005 5.62906C15.3396 5.41349 15.1138 5.25525 14.8562 5.17764ZM3.75 11.6614V3.33951L8.75 4.87514V10.1251L3.75 11.6614ZM11.75 12.0001H10.25V11.2364L11.75 10.7764V12.0001ZM14.25 8.44076L10.25 9.66764V5.33326L14.25 6.56264V8.44076Z" fill="#64748B"/>
</svg>
