<svg width="17" height="13" viewBox="0 0 17 13" fill="none" xmlns="http://www.w3.org/2000/svg">
<path d="M10.7741 9.31877C11.2355 8.86702 11.5518 8.28808 11.6828 7.6558C11.8138 7.02351 11.7535 6.36655 11.5095 5.7687C11.2655 5.17085 10.849 4.65922 10.3131 4.29907C9.77716 3.93892 9.14609 3.74658 8.50038 3.74658C7.85467 3.74658 7.2236 3.93892 6.68766 4.29907C6.15172 4.65922 5.73521 5.17085 5.49126 5.7687C5.2473 6.36655 5.18697 7.02351 5.31794 7.6558C5.44891 8.28808 5.76526 8.86702 6.22663 9.31877C5.44547 9.73401 4.79601 10.3594 4.35163 11.1244C4.25646 11.2964 4.2326 11.4988 4.28518 11.6882C4.33776 11.8776 4.46258 12.0387 4.63278 12.137C4.80298 12.2353 5.00497 12.2629 5.19527 12.2137C5.38558 12.1646 5.549 12.0428 5.65038 11.8744C5.94345 11.3792 6.36044 10.9689 6.86029 10.684C7.36015 10.399 7.92561 10.2491 8.501 10.2491C9.0764 10.2491 9.64186 10.399 10.1417 10.684C10.6416 10.9689 11.0586 11.3792 11.3516 11.8744C11.3999 11.9616 11.465 12.0383 11.5432 12.1C11.6215 12.1617 11.7112 12.2072 11.8072 12.2339C11.9032 12.2606 12.0036 12.2678 12.1024 12.2553C12.2013 12.2427 12.2966 12.2106 12.3829 12.1607C12.4692 12.1109 12.5447 12.0444 12.605 11.965C12.6653 11.8857 12.7091 11.7951 12.734 11.6987C12.7589 11.6022 12.7644 11.5017 12.75 11.4031C12.7356 11.3045 12.7018 11.2098 12.6504 11.1244C12.2057 10.3593 11.5557 9.73382 10.7741 9.31877ZM6.75038 7.00002C6.75038 6.6539 6.85301 6.31556 7.04531 6.02777C7.2376 5.73998 7.51091 5.51568 7.83068 5.38323C8.15045 5.25078 8.50232 5.21612 8.84179 5.28364C9.18125 5.35117 9.49308 5.51784 9.73782 5.76258C9.98256 6.00732 10.1492 6.31914 10.2168 6.65861C10.2843 6.99808 10.2496 7.34994 10.1172 7.66971C9.98472 7.98948 9.76041 8.2628 9.47263 8.45509C9.18484 8.64738 8.8465 8.75002 8.50038 8.75002C8.03625 8.75002 7.59113 8.56564 7.26294 8.23746C6.93475 7.90927 6.75038 7.46415 6.75038 7.00002ZM15.951 7.59939C15.8722 7.65862 15.7826 7.70174 15.6871 7.72628C15.5917 7.75083 15.4923 7.75632 15.3947 7.74245C15.2972 7.72858 15.2033 7.69561 15.1185 7.64543C15.0336 7.59526 14.9595 7.52885 14.9004 7.45002C14.3798 6.75689 13.6598 6.22564 13.0673 6.09752C12.9097 6.06344 12.7673 5.97952 12.6612 5.85818C12.5551 5.73684 12.4909 5.58454 12.4782 5.42386C12.4654 5.26318 12.5047 5.10266 12.5904 4.96609C12.676 4.82952 12.8033 4.72416 12.9535 4.66564C13.1405 4.59265 13.3072 4.4757 13.4394 4.32467C13.5716 4.17365 13.6656 3.993 13.7132 3.79801C13.7609 3.60302 13.7609 3.39941 13.7132 3.20442C13.6656 3.00942 13.5716 2.82878 13.4394 2.67775C13.3072 2.52673 13.1405 2.40978 12.9535 2.33679C12.7665 2.26379 12.5647 2.23691 12.3651 2.2584C12.1655 2.2799 11.9741 2.34914 11.8069 2.46028C11.6397 2.57142 11.5018 2.72118 11.4048 2.89689C11.3587 2.98594 11.2953 3.06486 11.2183 3.12898C11.1412 3.19311 11.0521 3.24114 10.9562 3.27024C10.8603 3.29934 10.7595 3.30891 10.6598 3.2984C10.5601 3.28789 10.4636 3.2575 10.3758 3.20904C10.2881 3.16057 10.211 3.09501 10.149 3.01623C10.087 2.93744 10.0415 2.84704 10.015 2.75035C9.9886 2.65366 9.98181 2.55266 9.99508 2.4533C10.0083 2.35395 10.0414 2.25826 10.0923 2.17189C10.2778 1.84374 10.5289 1.55724 10.8299 1.33021C11.1309 1.10317 11.4753 0.940449 11.8418 0.852142C12.2083 0.763834 12.5891 0.751829 12.9604 0.816874C13.3318 0.881918 13.6858 1.02262 14.0005 1.23025C14.3151 1.43787 14.5838 1.70798 14.7897 2.02379C14.9955 2.33961 15.1343 2.69438 15.1973 3.06608C15.2603 3.43778 15.2462 3.81847 15.1559 4.18449C15.0656 4.55051 14.9009 4.89405 14.6723 5.19377C15.2226 5.56034 15.7057 6.01891 16.1004 6.54939C16.2198 6.70845 16.2711 6.90842 16.2431 7.10533C16.2151 7.30223 16.11 7.47995 15.951 7.59939ZM3.9335 6.09939C3.341 6.22752 2.621 6.75877 2.10038 7.45252C1.98062 7.61157 1.80258 7.71652 1.60543 7.7443C1.40828 7.77208 1.20818 7.72041 1.04913 7.60064C0.890082 7.48088 0.785125 7.30284 0.757346 7.1057C0.729567 6.90855 0.781243 6.70844 0.901004 6.54939C1.2959 6.01907 1.77897 5.56053 2.32913 5.19377C2.10044 4.89405 1.93583 4.55051 1.8455 4.18449C1.75518 3.81847 1.74108 3.43778 1.80408 3.06608C1.86708 2.69438 2.00584 2.33961 2.21173 2.02379C2.41761 1.70798 2.68624 1.43787 3.00092 1.23025C3.3156 1.02262 3.6696 0.881918 4.04095 0.816874C4.4123 0.751829 4.79305 0.763834 5.15957 0.852142C5.52608 0.940449 5.87052 1.10317 6.17149 1.33021C6.47247 1.55724 6.72354 1.84374 6.90913 2.17189C6.96 2.25826 6.99305 2.35395 7.00631 2.4533C7.01957 2.55266 7.01278 2.65366 6.98635 2.75035C6.95991 2.84704 6.91436 2.93744 6.85239 3.01623C6.79042 3.09501 6.71328 3.16057 6.62554 3.20904C6.5378 3.2575 6.44124 3.28789 6.34155 3.2984C6.24187 3.30891 6.14109 3.29934 6.04517 3.27024C5.94925 3.24114 5.86014 3.19311 5.7831 3.12898C5.70606 3.06486 5.64265 2.98594 5.59663 2.89689C5.49958 2.72118 5.36165 2.57142 5.19448 2.46028C5.02732 2.34914 4.83586 2.2799 4.63628 2.2584C4.43669 2.23691 4.23487 2.26379 4.04788 2.33679C3.86089 2.40978 3.69422 2.52673 3.56199 2.67775C3.42975 2.82878 3.33583 3.00942 3.28817 3.20442C3.2405 3.39941 3.2405 3.60302 3.28817 3.79801C3.33583 3.993 3.42975 4.17365 3.56199 4.32467C3.69422 4.4757 3.86089 4.59265 4.04788 4.66564C4.19807 4.72416 4.32541 4.82952 4.41103 4.96609C4.49665 5.10266 4.53599 5.26318 4.52323 5.42386C4.51046 5.58454 4.44627 5.73684 4.34016 5.85818C4.23405 5.97952 4.09168 6.06344 3.93413 6.09752L3.9335 6.09939Z" fill="#14B8A6"/>
</svg>
