<svg width="24" height="24" viewBox="0 0 24 24" fill="none" xmlns="http://www.w3.org/2000/svg">
<path d="M7.49902 4.91846C8.45679 4.91846 9.39305 5.20333 10.1885 5.73682C10.984 6.27046 11.6035 7.02919 11.9668 7.91553C12.33 8.80173 12.4215 9.77604 12.2295 10.7144C12.0375 11.6528 11.57 12.5127 10.8877 13.1851L10.8418 13.231L10.8994 13.2603C12.6736 14.1781 14.0432 15.7866 14.5439 17.731C14.5793 17.8679 14.5871 18.0108 14.5674 18.1509C14.5476 18.2909 14.5005 18.4255 14.4287 18.5474C14.3568 18.6693 14.2616 18.7766 14.1484 18.8618C14.0354 18.9469 13.9065 19.0091 13.7695 19.0444C13.6325 19.0798 13.4897 19.0876 13.3496 19.0679C13.2094 19.0481 13.0741 19.0011 12.9521 18.9292C12.8303 18.8573 12.7238 18.7619 12.6387 18.6489C12.5536 18.5359 12.4915 18.407 12.4561 18.27C11.9141 16.1638 9.78296 14.5786 7.5 14.5786C5.21709 14.5787 3.0859 16.1629 2.54395 18.27C2.50853 18.407 2.44641 18.5359 2.36133 18.6489C2.2762 18.7619 2.16972 18.8573 2.04785 18.9292C1.92589 19.0011 1.79058 19.0481 1.65039 19.0679C1.51026 19.0876 1.36749 19.0798 1.23047 19.0444C1.09344 19.0091 0.964636 18.9469 0.851562 18.8618C0.738445 18.7766 0.643204 18.6693 0.571289 18.5474C0.499512 18.4256 0.452396 18.2909 0.432617 18.1509C0.412873 18.0108 0.420749 17.8679 0.456055 17.731C0.956812 15.7856 2.32634 14.1772 4.09863 13.2603L4.15625 13.231L4.11035 13.1851C3.42813 12.5127 2.96057 11.6528 2.76855 10.7144C2.57658 9.77597 2.66894 8.80178 3.03223 7.91553C3.39557 7.02919 4.01406 6.27046 4.80957 5.73682C5.605 5.20327 6.54122 4.91848 7.49902 4.91846ZM17.625 15.4224H22.875C23.1609 15.4224 23.4355 15.5356 23.6377 15.7378C23.8398 15.94 23.9531 16.2146 23.9531 16.5005C23.953 16.7862 23.8396 17.0601 23.6377 17.2622C23.4355 17.4644 23.1609 17.5786 22.875 17.5786H17.625C17.3391 17.5786 17.0645 17.4644 16.8623 17.2622C16.6604 17.0602 16.547 16.7861 16.5469 16.5005C16.5469 16.2147 16.6603 15.94 16.8623 15.7378C17.0645 15.5356 17.3391 15.4224 17.625 15.4224ZM15.375 10.9224H22.875C23.1609 10.9224 23.4355 11.0356 23.6377 11.2378C23.8398 11.44 23.9531 11.7146 23.9531 12.0005C23.953 12.2862 23.8396 12.5601 23.6377 12.7622C23.4355 12.9644 23.1609 13.0786 22.875 13.0786H15.375C15.0891 13.0786 14.8145 12.9644 14.6123 12.7622C14.4104 12.5602 14.297 12.2861 14.2969 12.0005C14.2969 11.7147 14.4103 11.44 14.6123 11.2378C14.8145 11.0356 15.0891 10.9224 15.375 10.9224ZM8.02148 7.12939C7.50319 7.0263 6.96576 7.07951 6.47754 7.28174C5.98937 7.48397 5.57189 7.82676 5.27832 8.26611C4.98491 8.70541 4.82812 9.22221 4.82812 9.75049C4.82818 10.1012 4.89703 10.4489 5.03125 10.7729C5.16546 11.0969 5.36245 11.3912 5.61035 11.6392C6.1114 12.1402 6.79141 12.4223 7.5 12.4224C8.02845 12.4224 8.54499 12.2648 8.98438 11.9712C9.42362 11.6777 9.76652 11.261 9.96875 10.7729C10.1709 10.2848 10.2241 9.74721 10.1211 9.229C10.018 8.71079 9.76323 8.23448 9.38965 7.86084C9.016 7.4872 8.53974 7.2325 8.02148 7.12939ZM15.375 6.42236H22.875C23.1609 6.42236 23.4355 6.53561 23.6377 6.73779C23.8398 6.93996 23.9531 7.21463 23.9531 7.50049C23.953 7.78616 23.8396 8.06014 23.6377 8.26221C23.4355 8.46439 23.1609 8.57861 22.875 8.57861H15.375C15.0891 8.57859 14.8145 8.46437 14.6123 8.26221C14.4104 8.06015 14.297 7.78612 14.2969 7.50049C14.2969 7.21467 14.4103 6.93996 14.6123 6.73779C14.8145 6.53563 15.0891 6.42239 15.375 6.42236Z" fill="#94A3B8" stroke="#94A3B8" stroke-width="0.09375"/>
</svg>
