<svg width="24" height="24" viewBox="0 0 24 24" fill="none" xmlns="http://www.w3.org/2000/svg">
<path d="M10.1246 2.66516C11.5185 2.66516 12.8779 3.09978 14.0133 3.90833C15.1485 4.7168 16.0038 5.85888 16.4596 7.1759C16.9153 8.49298 16.949 9.91974 16.5563 11.257C16.1635 12.5942 15.3638 13.7764 14.2682 14.6378L14.2047 14.6876L14.2789 14.7179C16.0462 15.4387 17.6078 16.5856 18.8248 18.0558L18.8258 18.0568C19.0096 18.2757 19.0986 18.5591 19.0739 18.8439C19.049 19.1286 18.9118 19.3915 18.693 19.5753C18.4741 19.7591 18.1916 19.849 17.9069 19.8243C17.622 19.7996 17.3584 19.6624 17.1744 19.4435C15.8856 17.9089 13.6118 16.0782 10.1246 16.0782C7.40189 16.0783 4.89829 17.2736 3.07581 19.4435C2.89188 19.6624 2.62825 19.7995 2.34338 19.8243C2.05847 19.8491 1.77526 19.7593 1.55627 19.5753C1.33751 19.3915 1.20028 19.1285 1.17542 18.8439C1.15065 18.559 1.24053 18.2757 1.42444 18.0568V18.0558C2.64167 16.5858 4.20326 15.4391 5.97034 14.7179L6.04553 14.6876L5.98206 14.6378C4.88631 13.7763 4.08582 12.5943 3.69299 11.257C3.30034 9.91977 3.33492 8.49294 3.79065 7.1759C4.24649 5.85891 5.10172 4.71677 6.23694 3.90833C7.37219 3.09994 8.73097 2.66521 10.1246 2.66516ZM11.0123 4.91516C10.1303 4.73972 9.21523 4.82981 8.3844 5.17395C7.55374 5.51808 6.84392 6.10118 6.34436 6.84875C5.84474 7.59648 5.57776 8.47584 5.57776 9.37512C5.57903 10.5806 6.05839 11.7366 6.91077 12.589C7.76315 13.4414 8.91919 13.9207 10.1246 13.922C11.0239 13.922 11.9033 13.655 12.651 13.1554C13.3986 12.6558 13.9817 11.946 14.3258 11.1154C14.6699 10.2847 14.7599 9.37026 14.5846 8.4884C14.4092 7.6066 13.9761 6.7961 13.3405 6.16028C12.7046 5.52447 11.8942 5.09065 11.0123 4.91516ZM19.1246 11.672H22.8746C23.1605 11.672 23.4351 11.7853 23.6373 11.9874C23.8395 12.1896 23.9528 12.4642 23.9528 12.7501C23.9527 13.036 23.8395 13.3107 23.6373 13.5128C23.4352 13.7149 23.1605 13.8282 22.8746 13.8282H19.1246C18.839 13.8282 18.565 13.7147 18.3629 13.5128C18.1608 13.3107 18.0465 13.036 18.0465 12.7501C18.0465 12.4642 18.1607 12.1896 18.3629 11.9874C18.565 11.7855 18.8389 11.6721 19.1246 11.672Z" fill="#94A3B8" stroke="#94A3B8" stroke-width="0.09375"/>
</svg>
