<svg width="24" height="16" viewBox="0 0 24 16" fill="none" xmlns="http://www.w3.org/2000/svg">
<path d="M7.87537 0.166992C9.09649 0.167075 10.288 0.542963 11.2885 1.24316C12.289 1.94344 13.05 2.93463 13.4681 4.08203C13.8862 5.22937 13.9416 6.47749 13.6263 7.65723C13.311 8.83698 12.6402 9.89097 11.7054 10.6768L11.6488 10.7256L11.7162 10.7559C13.1803 11.4181 14.4492 12.4464 15.4008 13.7412C15.5698 13.9718 15.6405 14.2603 15.597 14.543C15.5535 14.8254 15.3997 15.0789 15.1693 15.248C14.9387 15.4172 14.6502 15.4877 14.3676 15.4443C14.0848 15.4009 13.8307 15.2473 13.6615 15.0166C12.9956 14.1072 12.1247 13.3673 11.1195 12.8574C10.1142 12.3475 9.00255 12.0821 7.87537 12.082C6.74817 12.082 5.63653 12.3476 4.63123 12.8574C3.62583 13.3674 2.75424 14.107 2.08826 15.0166C1.91916 15.247 1.66563 15.4009 1.38318 15.4443C1.10059 15.4877 0.811938 15.4172 0.581421 15.248C0.350884 15.0789 0.197073 14.8246 0.153687 14.542C0.110407 14.2595 0.180972 13.9716 0.349976 13.7412C1.30099 12.4462 2.56961 11.4178 4.03357 10.7559L4.10193 10.7256L4.04431 10.6768C3.10961 9.89098 2.43871 8.83694 2.12341 7.65723C1.80814 6.47752 1.86356 5.22934 2.28162 4.08203C2.69977 2.93468 3.46086 1.94343 4.4613 1.24316C5.46186 0.542886 6.6541 0.166992 7.87537 0.166992ZM14.5941 0.371094C15.9014 0.0247643 17.2878 0.13411 18.5248 0.680664C19.7616 1.22725 20.7757 2.17832 21.3998 3.37793C22.0239 4.57773 22.2209 5.95454 21.9584 7.28125C21.6958 8.60791 20.9895 9.80612 19.9554 10.6777L19.8988 10.7256L19.9662 10.7559C21.4302 11.4178 22.6988 12.4462 23.6498 13.7412C23.8176 13.9714 23.8883 14.2585 23.8451 14.54C23.8018 14.8217 23.6486 15.075 23.4193 15.2441C23.3052 15.328 23.175 15.3881 23.0375 15.4219C22.9001 15.4556 22.7574 15.4618 22.6176 15.4404C22.4776 15.419 22.3432 15.3703 22.222 15.2969C22.131 15.2417 22.0487 15.1737 21.9779 15.0947L21.9115 15.0127C21.2439 14.1049 20.3725 13.3661 19.3676 12.8564C18.4881 12.4104 17.5276 12.1513 16.5463 12.0918L16.1254 12.0781L16.0179 12.0732C15.7714 12.0487 15.5395 11.9394 15.3627 11.7627C15.1605 11.5605 15.0472 11.2859 15.0472 11C15.0472 10.7141 15.1605 10.4395 15.3627 10.2373C15.5648 10.0352 15.8395 9.92188 16.1254 9.92188C16.6647 9.92087 17.1978 9.80513 17.6888 9.58203C18.1801 9.35876 18.6184 9.03282 18.974 8.62695C19.3296 8.22105 19.5946 7.74391 19.7513 7.22754C19.908 6.71112 19.9532 6.16694 19.8832 5.63184C19.8131 5.09682 19.6294 4.58263 19.3451 4.12402C19.0607 3.66547 18.6818 3.27232 18.2338 2.97168C17.7857 2.6711 17.2785 2.47013 16.7465 2.38086C16.2144 2.2916 15.6694 2.31622 15.1478 2.4541L15.1459 2.45508C15.0081 2.49486 14.8635 2.50691 14.7211 2.49023C14.5785 2.47352 14.4407 2.42808 14.3158 2.35742C14.1909 2.28674 14.0813 2.19172 13.9935 2.07812C13.9058 1.96452 13.8419 1.83407 13.8051 1.69531C13.7683 1.5568 13.759 1.41245 13.7787 1.27051C13.7985 1.12842 13.847 0.991471 13.9203 0.868164C13.9937 0.744814 14.0909 0.63701 14.2064 0.551758C14.3219 0.466494 14.4536 0.404895 14.5931 0.371094H14.5941ZM8.6156 2.40137C7.87917 2.25489 7.11596 2.32989 6.42224 2.61719C5.72846 2.90456 5.13534 3.39124 4.71814 4.01562C4.30093 4.64002 4.07849 5.37405 4.07849 6.125C4.0785 7.13186 4.47795 8.09755 5.18982 8.80957C5.90187 9.52162 6.86837 9.92188 7.87537 9.92188C8.62618 9.9218 9.36046 9.69936 9.98474 9.28223C10.6091 8.86503 11.0958 8.27187 11.3832 7.57812C11.6706 6.88434 11.7455 6.12031 11.599 5.38379C11.4525 4.64753 11.0907 3.9713 10.5599 3.44043C10.0289 2.90943 9.35212 2.54787 8.6156 2.40137Z" fill="#94A3B8" stroke="#94A3B8" stroke-width="0.09375"/>
</svg>
