<svg width="23" height="18" viewBox="0 0 23 18" fill="none" xmlns="http://www.w3.org/2000/svg">
<path d="M9.12463 0.665161C10.5185 0.665161 11.8779 1.09978 13.0133 1.90833C14.1485 2.7168 15.0038 3.85888 15.4596 5.1759C15.9153 6.49298 15.949 7.91974 15.5563 9.25696C15.1635 10.5942 14.3638 11.7764 13.2682 12.6378L13.2047 12.6876L13.2789 12.7179C15.0462 13.4387 16.6078 14.5856 17.8248 16.0558L17.8258 16.0568C18.0096 16.2757 18.0986 16.5591 18.0739 16.8439C18.049 17.1286 17.9118 17.3915 17.693 17.5753C17.4741 17.7591 17.1916 17.849 16.9069 17.8243C16.622 17.7996 16.3584 17.6624 16.1744 17.4435C14.8856 15.9089 12.6118 14.0782 9.12463 14.0782C6.40189 14.0783 3.89829 15.2736 2.07581 17.4435C1.89188 17.6624 1.62825 17.7995 1.34338 17.8243C1.05847 17.8491 0.775256 17.7593 0.556274 17.5753C0.337506 17.3915 0.200285 17.1285 0.175415 16.8439C0.15065 16.559 0.24053 16.2757 0.424438 16.0568V16.0558C1.64167 14.5858 3.20326 13.4391 4.97034 12.7179L5.04553 12.6876L4.98206 12.6378C3.88631 11.7763 3.08582 10.5943 2.69299 9.25696C2.30034 7.91977 2.33492 6.49294 2.79065 5.1759C3.24649 3.85891 4.10172 2.71677 5.23694 1.90833C6.37219 1.09994 7.73097 0.665206 9.12463 0.665161ZM19.9996 7.797C20.2855 7.797 20.5601 7.91027 20.7623 8.11243C20.9645 8.31461 21.0778 8.58919 21.0778 8.87512V9.672H21.8746C22.1605 9.672 22.4351 9.78527 22.6373 9.98743C22.8395 10.1896 22.9528 10.4642 22.9528 10.7501C22.9527 11.036 22.8395 11.3107 22.6373 11.5128C22.4352 11.7149 22.1605 11.8282 21.8746 11.8282H21.0778V12.6251C21.0777 12.911 20.9645 13.1857 20.7623 13.3878C20.5602 13.5899 20.2855 13.7032 19.9996 13.7032C19.714 13.7032 19.44 13.5897 19.2379 13.3878C19.0358 13.1857 18.9215 12.911 18.9215 12.6251V11.8282H18.1246C17.839 11.8282 17.565 11.7147 17.3629 11.5128C17.1608 11.3107 17.0465 11.036 17.0465 10.7501C17.0465 10.4642 17.1607 10.1896 17.3629 9.98743C17.565 9.78549 17.8389 9.67205 18.1246 9.672H18.9215V8.87512C18.9215 8.58919 19.0357 8.31461 19.2379 8.11243C19.44 7.91049 19.7139 7.79705 19.9996 7.797ZM10.0123 2.91516C9.13032 2.73972 8.21523 2.82981 7.3844 3.17395C6.55374 3.51808 5.84392 4.10118 5.34436 4.84875C4.84474 5.59648 4.57776 6.47584 4.57776 7.37512C4.57903 8.58058 5.05839 9.73659 5.91077 10.589C6.76315 11.4414 7.91919 11.9207 9.12463 11.922C10.0239 11.922 10.9033 11.655 11.651 11.1554C12.3986 10.6558 12.9817 9.94605 13.3258 9.11536C13.6699 8.28467 13.7599 7.37026 13.5846 6.4884C13.4092 5.6066 12.9761 4.7961 12.3405 4.16028C11.7046 3.52447 10.8942 3.09065 10.0123 2.91516Z" fill="#94A3B8" stroke="#94A3B8" stroke-width="0.09375"/>
</svg>
