<svg width="20" height="15" viewBox="0 0 20 15" fill="none" xmlns="http://www.w3.org/2000/svg">
<path d="M19.9999 8.62474C19.9999 8.87338 19.9012 9.11184 19.7253 9.28765C19.5495 9.46347 19.3111 9.56224 19.0624 9.56224H15.9374C15.6888 9.56224 15.4503 9.46347 15.2745 9.28765C15.0987 9.11184 14.9999 8.87338 14.9999 8.62474C14.9999 8.3761 15.0987 8.13764 15.2745 7.96183C15.4503 7.78601 15.6888 7.68724 15.9374 7.68724H19.0624C19.3111 7.68724 19.5495 7.78601 19.7253 7.96183C19.9012 8.13764 19.9999 8.3761 19.9999 8.62474ZM15.7179 13.0216C15.8779 13.212 15.9556 13.4582 15.9341 13.7059C15.9126 13.9537 15.7935 14.1828 15.6031 14.3427C15.4126 14.5027 15.1665 14.5804 14.9187 14.5589C14.671 14.5374 14.4419 14.4183 14.282 14.2279C13.2124 12.9544 11.3281 11.4372 8.43744 11.4372C6.1804 11.4372 4.10462 12.4279 2.5929 14.2279C2.43295 14.4183 2.2039 14.5374 1.95614 14.5589C1.70839 14.5804 1.46223 14.5027 1.27181 14.3427C1.08139 14.1828 0.962319 13.9537 0.940781 13.7059C0.919244 13.4582 0.997008 13.212 1.15697 13.0216C2.1755 11.7915 3.48219 10.8321 4.96087 10.2286C4.04137 9.50574 3.37009 8.51416 3.04044 7.39192C2.7108 6.26968 2.7392 5.07258 3.12169 3.96723C3.50417 2.86188 4.22171 1.90326 5.17446 1.22476C6.12722 0.54626 7.26778 0.181641 8.43744 0.181641C9.60709 0.181641 10.7477 0.54626 11.7004 1.22476C12.6532 1.90326 13.3707 2.86188 13.7532 3.96723C14.1357 5.07258 14.1641 6.26968 13.8344 7.39192C13.5048 8.51416 12.8335 9.50574 11.914 10.2286C13.3928 10.8318 14.6995 11.7913 15.7179 13.0216ZM8.43744 9.56224C9.17912 9.56224 9.90414 9.34231 10.5208 8.93025C11.1375 8.5182 11.6182 7.93253 11.902 7.2473C12.1858 6.56208 12.2601 5.80808 12.1154 5.08065C11.9707 4.35322 11.6135 3.68504 11.0891 3.16059C10.5646 2.63614 9.89645 2.27899 9.16902 2.1343C8.4416 1.9896 7.6876 2.06386 7.00237 2.34769C6.31715 2.63152 5.73148 3.11217 5.31942 3.72885C4.90737 4.34554 4.68744 5.07056 4.68744 5.81224C4.68847 6.80649 5.08389 7.75971 5.78693 8.46275C6.48996 9.16579 7.44319 9.56121 8.43744 9.56224Z" fill="#CBD5E1"/>
</svg>
