<svg width="32" height="34" viewBox="0 0 32 34" fill="none" xmlns="http://www.w3.org/2000/svg">
<path d="M3 13H29M6 7H26C27.66 7 29 8.34 29 10V28C29 29.66 27.66 31 26 31H6C5.20435 31 4.44129 30.6839 3.87868 30.1213C3.31607 29.5587 3 28.7956 3 28V10C3 8.34 4.34 7 6 7Z" stroke="#FF42C6" stroke-width="2" stroke-linecap="round" stroke-linejoin="round"/>
<path d="M7 13L11 7M14 13L18 7M21 13L25 7M13 18V26L21 22L13 18Z" stroke="#FF42C6" stroke-width="2" stroke-linecap="round" stroke-linejoin="round"/>
</svg>
