<svg width="24" height="26" viewBox="0 0 24 26" fill="none" xmlns="http://www.w3.org/2000/svg">
<path d="M11.9952 3.125C5.99053 3.125 1.12021 7.99531 1.12021 14C1.12021 14.1594 1.1249 14.3234 1.12959 14.4828C0.496777 14.5625 0.00927734 15.1016 0.00927734 15.7578C0.00927734 16.4703 0.58584 17.0516 1.30303 17.0516H1.55615C2.87803 21.5703 7.0499 24.8703 11.9952 24.8703C17.9999 24.8703 22.8702 20.0047 22.8702 13.9953C22.8655 7.99062 17.9999 3.125 11.9952 3.125Z" fill="#FFD469"/>
<path d="M17.4092 10.2266C18.0701 10.2266 18.6045 10.7609 18.6045 11.4219V14.0984C18.6045 14.7594 18.0701 14.1078 17.4092 14.1078C16.7482 14.1078 16.2139 14.7594 16.2139 14.0984V11.4219C16.2139 10.7609 16.7482 10.2266 17.4092 10.2266Z" fill="#2B3B47"/>
<path d="M16.3218 14.7594C16.1859 14.7594 16.05 14.6843 15.9843 14.5531C15.8906 14.3656 15.9703 14.1406 16.1531 14.0515C16.95 13.6578 17.8593 13.6437 18.6515 14.0187C18.839 14.1078 18.9187 14.3328 18.8297 14.5203C18.7406 14.7078 18.5156 14.7875 18.3281 14.6984C17.7468 14.4218 17.0765 14.4312 16.4859 14.7265C16.4343 14.7453 16.3781 14.7594 16.3218 14.7594Z" fill="#F2A74E"/>
<path d="M6.58594 10.2266C7.24688 10.2266 7.78125 10.7609 7.78125 11.4219V14.0984C7.78125 14.7594 7.24688 14.1078 6.58594 14.1078C5.925 14.1078 5.39062 14.7594 5.39062 14.0984V11.4219C5.39062 10.7609 5.925 10.2266 6.58594 10.2266Z" fill="#2B3B47"/>
<path d="M5.49861 14.7594C5.36267 14.7594 5.22673 14.6843 5.16111 14.5531C5.06736 14.3656 5.14704 14.1406 5.32986 14.0515C6.12673 13.6578 7.03611 13.6437 7.82829 14.0187C8.01579 14.1078 8.09548 14.3328 8.00642 14.5203C7.91736 14.7078 7.69236 14.7875 7.50486 14.6984C6.92361 14.4218 6.25329 14.4312 5.66267 14.7265C5.61111 14.7453 5.55486 14.7594 5.49861 14.7594Z" fill="#F2A74E"/>
<path d="M22.8563 14.4781C22.8609 14.3187 22.8656 14.1593 22.8656 13.9953C22.8656 11.089 21.7266 8.44995 19.8656 6.50464C20.9156 8.2062 21.525 10.2125 21.525 12.3593C21.525 18.5281 16.5234 23.5296 10.3547 23.5296C8.20781 23.5296 6.20156 22.9203 4.5 21.8703C6.45 23.7265 9.08906 24.8656 11.9953 24.8656C16.9406 24.8656 21.1172 21.5656 22.4344 17.0468H22.6875C23.4 17.0468 23.9813 16.4703 23.9813 15.7531C23.9766 15.1015 23.4891 14.5625 22.8563 14.4781Z" fill="#FFB636"/>
<path d="M11.9015 19.9203C11.0531 19.9203 10.2515 19.5781 9.70778 18.9781C9.52028 18.7719 9.53903 18.4578 9.74528 18.2703C9.95153 18.0828 10.2656 18.1016 10.4531 18.3078C10.8093 18.6969 11.3343 18.9219 11.9062 18.9219H11.9203C12.4922 18.9172 13.0172 18.6922 13.3687 18.2937C13.5515 18.0875 13.8656 18.0687 14.0765 18.2516C14.2828 18.4344 14.3015 18.7484 14.1187 18.9594C13.5797 19.5687 12.7828 19.9203 11.9297 19.925C11.9109 19.9203 11.9062 19.9203 11.9015 19.9203Z" fill="#2B3B47"/>
</svg>
