<svg width="24" height="24" viewBox="0 0 24 24" fill="none" xmlns="http://www.w3.org/2000/svg">
<path d="M16.1265 2.29785C16.5519 2.29796 16.9738 2.37161 17.3735 2.51465L17.5435 2.58008C17.9367 2.74309 18.2991 2.97245 18.6138 3.25781L18.7456 3.38281C19.0466 3.68393 19.2926 4.03486 19.4741 4.41895L19.5474 4.58496C19.7333 5.03421 19.8297 5.51574 19.8296 6.00195L19.8247 6.18457C19.8067 6.54818 19.7355 6.90726 19.6128 7.25L19.5474 7.41992C19.3613 7.86881 19.0882 8.2765 18.7446 8.62012L18.729 8.63477V8.63574L9.74756 17.2812C9.671 17.3549 9.58404 17.4168 9.48975 17.4648L9.39307 17.5078C9.26126 17.5594 9.12053 17.5848 8.979 17.582L8.87354 17.5742C8.80322 17.5659 8.73384 17.5512 8.6665 17.5293L8.56787 17.4922C8.43817 17.4355 8.32129 17.353 8.22314 17.251C8.14947 17.1744 8.08763 17.0875 8.03955 16.9932L7.99561 16.8965C7.95701 16.7978 7.93363 16.6941 7.92529 16.5889L7.92139 16.4824C7.92348 16.3764 7.9415 16.2714 7.97412 16.1709L8.01221 16.0723C8.05471 15.975 8.11059 15.8841 8.1792 15.8037L8.25244 15.7266L17.2251 7.09082L17.2261 7.08984C17.5153 6.79882 17.6766 6.40444 17.6753 5.99414L17.6675 5.8418C17.6364 5.53802 17.5161 5.25018 17.3218 5.01465L17.2192 4.90137C17.1113 4.79409 16.9879 4.70393 16.854 4.63281L16.7163 4.56836C16.5754 4.51052 16.4269 4.47343 16.2759 4.45898L16.1235 4.45215C15.7645 4.45331 15.4186 4.57912 15.144 4.80566L15.0317 4.9082L5.82861 14.083C5.18707 14.7249 4.8265 15.5954 4.82666 16.5029L4.83154 16.6709C4.84811 17.0068 4.91355 17.3386 5.02686 17.6553L5.0874 17.8125C5.25946 18.2277 5.51177 18.6051 5.82959 18.9229C6.14734 19.2405 6.52485 19.4922 6.93994 19.6641C7.30324 19.8145 7.68965 19.9017 8.08154 19.9209L8.25049 19.9248C9.10136 19.9245 9.91975 19.6077 10.5474 19.0391L10.6694 18.9219L18.3628 11.2344C18.438 11.1591 18.5242 11.0959 18.6177 11.0459L18.7134 11C18.8443 10.9458 18.9847 10.918 19.1265 10.918C19.2328 10.918 19.3385 10.9341 19.4399 10.9648L19.5396 11C19.6379 11.0407 19.73 11.0958 19.812 11.1631L19.8901 11.2344C19.9655 11.3097 20.0296 11.3956 20.0796 11.4893L20.1245 11.585C20.1787 11.7159 20.2065 11.8563 20.2065 11.998C20.2065 12.1398 20.1787 12.2802 20.1245 12.4111C20.0716 12.5388 19.9936 12.6543 19.897 12.7529L19.896 12.7539L19.8862 12.7627L12.1938 20.4502C11.1475 21.4962 9.7281 22.0842 8.24854 22.084L7.97217 22.0771C6.68507 22.0132 5.45952 21.5048 4.50439 20.6396L4.3042 20.4492C3.25818 19.4028 2.6702 17.9835 2.67041 16.5039L2.67725 16.2275C2.74122 14.9404 3.24955 13.7149 4.11475 12.7598L4.30518 12.5596L13.5073 3.38184C14.1586 2.73092 15.0276 2.34796 15.9429 2.30273L16.1265 2.29785Z" fill="#475569" stroke="#475569" stroke-width="0.09375"/>
</svg>
