<svg width="80" height="81" viewBox="0 0 80 81" fill="none" xmlns="http://www.w3.org/2000/svg">
<path d="M66.6665 68.8334H13.3332C9.6665 68.8334 6.6665 65.8334 6.6665 62.1667V18.8334C6.6665 15.1667 9.6665 12.1667 13.3332 12.1667H66.6665C70.3332 12.1667 73.3332 15.1667 73.3332 18.8334V62.1667C73.3332 65.8334 70.3332 68.8334 66.6665 68.8334Z" fill="#8CBCD6"/>
<path d="M58.3335 32.1667C61.0949 32.1667 63.3335 29.9281 63.3335 27.1667C63.3335 24.4053 61.0949 22.1667 58.3335 22.1667C55.5721 22.1667 53.3335 24.4053 53.3335 27.1667C53.3335 29.9281 55.5721 32.1667 58.3335 32.1667Z" fill="#B3DDF5"/>
<path d="M33.3333 27.1667L15 53.8334H51.6667L33.3333 27.1667Z" fill="#9AC9E3"/>
<path d="M51.6668 37.1667L38.3335 53.8334H65.0002L51.6668 37.1667Z" fill="#B3DDF5"/>
<path d="M63.3332 80.5C72.5379 80.5 79.9998 73.0381 79.9998 63.8334C79.9998 54.6286 72.5379 47.1667 63.3332 47.1667C54.1284 47.1667 46.6665 54.6286 46.6665 63.8334C46.6665 73.0381 54.1284 80.5 63.3332 80.5Z" fill="#43A047"/>
<path d="M60 53.8333H66.6667V73.8333H60V53.8333Z" fill="white"/>
<path d="M53.3335 60.5H73.3335V67.1667H53.3335V60.5Z" fill="white"/>
</svg>
