<svg width="24" height="24" viewBox="0 0 24 24" fill="none" xmlns="http://www.w3.org/2000/svg">
<path d="M5.9999 7.20001C5.99995 6.39794 6.20097 5.60868 6.58462 4.90432C6.96827 4.19996 7.5223 3.60296 8.1961 3.16788C8.86989 2.73279 9.64198 2.47348 10.4418 2.41365C11.2416 2.35381 12.0437 2.49535 12.7747 2.82534C13.5058 3.15533 14.1425 3.66324 14.6266 4.30268C15.1108 4.94212 15.4271 5.69268 15.5464 6.48581C15.6658 7.27894 15.5846 8.08934 15.3101 8.84297C15.0356 9.59661 14.5766 10.2694 13.9751 10.8H13.8155C12.8519 10.8 11.9939 11.2524 11.4407 11.958C10.7623 12.0494 10.0722 11.9946 9.41664 11.7973C8.76113 11.6001 8.1554 11.2649 7.6401 10.8142C7.12479 10.3636 6.71184 9.80795 6.42894 9.18458C6.14605 8.56122 5.99976 7.88456 5.9999 7.20001ZM10.7999 3.60001C9.84512 3.60001 8.92945 3.97929 8.25432 4.65442C7.57919 5.32955 7.1999 6.24523 7.1999 7.20001C7.1999 8.15479 7.57919 9.07046 8.25432 9.74559C8.92945 10.4207 9.84512 10.8 10.7999 10.8C11.7547 10.8 12.6704 10.4207 13.3455 9.74559C14.0206 9.07046 14.3999 8.15479 14.3999 7.20001C14.3999 6.24523 14.0206 5.32955 13.3455 4.65442C12.6704 3.97929 11.7547 3.60001 10.7999 3.60001ZM10.8635 13.2H4.8107C4.49462 13.1986 4.18137 13.2596 3.88895 13.3796C3.59652 13.4996 3.33067 13.6761 3.10666 13.8991C2.88265 14.1221 2.70491 14.3872 2.58362 14.6791C2.46233 14.971 2.3999 15.2839 2.3999 15.6C2.3999 17.6292 3.3995 19.1592 4.9619 20.1564C6.5003 21.1368 8.5739 21.6 10.7999 21.6C11.7635 21.6 12.6995 21.5136 13.5755 21.336L12.5507 20.2896C11.9931 20.3632 11.4095 20.4 10.7999 20.4C8.7179 20.4 6.8915 19.9632 5.6075 19.1436C4.3475 18.3396 3.5999 17.172 3.5999 15.6C3.5999 14.9364 4.1375 14.4 4.8107 14.4H10.7987V13.8192C10.7995 13.6064 10.8203 13.4 10.8635 13.2ZM11.9999 17.268C11.9999 17.7444 12.1859 18.2004 12.5183 18.54L16.1591 22.2564C16.8551 22.9668 17.9915 22.9836 18.7079 22.2936L22.2443 18.8892C22.4175 18.7222 22.5558 18.5225 22.6512 18.3016C22.7465 18.0807 22.7971 17.8431 22.7999 17.6025C22.8027 17.3619 22.7576 17.1232 22.6674 16.9001C22.5772 16.6771 22.4436 16.4742 22.2743 16.3032L18.5459 12.5364C18.3779 12.366 18.1776 12.2307 17.9567 12.1386C17.7358 12.0465 17.4988 11.9994 17.2595 12H13.8119C13.5737 12 13.3379 12.047 13.1179 12.1382C12.8979 12.2294 12.6981 12.3631 12.5298 12.5316C12.3615 12.7001 12.2281 12.9001 12.1371 13.1202C12.0462 13.3404 11.9996 13.5762 11.9999 13.8144V17.268ZM15.2999 16.2C15.0612 16.2 14.8323 16.1052 14.6635 15.9364C14.4947 15.7676 14.3999 15.5387 14.3999 15.3C14.3999 15.0613 14.4947 14.8324 14.6635 14.6636C14.8323 14.4948 15.0612 14.4 15.2999 14.4C15.5386 14.4 15.7675 14.4948 15.9363 14.6636C16.1051 14.8324 16.1999 15.0613 16.1999 15.3C16.1999 15.5387 16.1051 15.7676 15.9363 15.9364C15.7675 16.1052 15.5386 16.2 15.2999 16.2Z" fill="#14B8A6"/>
</svg>
