<svg width="24" height="26" viewBox="0 0 24 26" fill="none" xmlns="http://www.w3.org/2000/svg">
<path d="M13.5 8.75V19.25C13.5 19.4489 13.421 19.6397 13.2803 19.7803C13.1397 19.921 12.9489 20 12.75 20C12.5511 20 12.3603 19.921 12.2197 19.7803C12.079 19.6397 12 19.4489 12 19.25V8.75C12 8.55109 12.079 8.36032 12.2197 8.21967C12.3603 8.07902 12.5511 8 12.75 8C12.9489 8 13.1397 8.07902 13.2803 8.21967C13.421 8.36032 13.5 8.55109 13.5 8.75ZM21.75 8H16.5C16.3011 8 16.1103 8.07902 15.9697 8.21967C15.829 8.36032 15.75 8.55109 15.75 8.75V19.25C15.75 19.4489 15.829 19.6397 15.9697 19.7803C16.1103 19.921 16.3011 20 16.5 20C16.6989 20 16.8897 19.921 17.0303 19.7803C17.171 19.6397 17.25 19.4489 17.25 19.25V14.75H21C21.1989 14.75 21.3897 14.671 21.5303 14.5303C21.671 14.3897 21.75 14.1989 21.75 14C21.75 13.8011 21.671 13.6103 21.5303 13.4697C21.3897 13.329 21.1989 13.25 21 13.25H17.25V9.5H21.75C21.9489 9.5 22.1397 9.42098 22.2803 9.28033C22.421 9.13968 22.5 8.94891 22.5 8.75C22.5 8.55109 22.421 8.36032 22.2803 8.21967C22.1397 8.07902 21.9489 8 21.75 8ZM9 13.25H6.75C6.55109 13.25 6.36032 13.329 6.21967 13.4697C6.07902 13.6103 6 13.8011 6 14C6 14.1989 6.07902 14.3897 6.21967 14.5303C6.36032 14.671 6.55109 14.75 6.75 14.75H8.25V16.25C8.25 16.8467 8.01295 17.419 7.59099 17.841C7.16903 18.2629 6.59674 18.5 6 18.5C5.40326 18.5 4.83097 18.2629 4.40901 17.841C3.98705 17.419 3.75 16.8467 3.75 16.25V11.75C3.75 11.1533 3.98705 10.581 4.40901 10.159C4.83097 9.73705 5.40326 9.5 6 9.5C7.04906 9.5 8.02594 10.2256 8.27344 11.1875C8.32317 11.3802 8.44741 11.5452 8.61882 11.6463C8.79025 11.7474 8.9948 11.7763 9.1875 11.7266C9.3802 11.6768 9.54525 11.5526 9.64634 11.3812C9.74743 11.2098 9.77629 11.0052 9.72656 10.8125C9.30656 9.18313 7.74 8 6 8C5.00544 8 4.05161 8.39509 3.34835 9.09835C2.64509 9.80161 2.25 10.7554 2.25 11.75V16.25C2.25 17.2446 2.64509 18.1984 3.34835 18.9017C4.05161 19.6049 5.00544 20 6 20C6.99456 20 7.94839 19.6049 8.65165 18.9017C9.35491 18.1984 9.75 17.2446 9.75 16.25V14C9.75 13.8011 9.67098 13.6103 9.53033 13.4697C9.38968 13.329 9.19891 13.25 9 13.25Z" fill="#0891B2"/>
</svg>
