<svg width="26" height="25" viewBox="0 0 26 25" fill="none" xmlns="http://www.w3.org/2000/svg">
<path d="M24.25 9.44571V19.9167C24.25 21.7576 22.7576 23.25 20.9167 23.25H16.75H9.25H5.08333C3.24238 23.25 1.75 21.7576 1.75 19.9167V9.44571C1.75 8.28012 2.35884 7.19918 3.35566 6.59505L11.2723 1.79707C12.3342 1.15351 13.6658 1.15351 14.7277 1.79707L22.6443 6.59505C23.6412 7.19918 24.25 8.28012 24.25 9.44571Z" fill="white"/>
<path d="M9.25 23.25H5.08333C3.24238 23.25 1.75 21.7576 1.75 19.9167V9.44571C1.75 8.28012 2.35885 7.19918 3.35566 6.59505L11.2723 1.79707C12.3342 1.15351 13.6658 1.15351 14.7277 1.79707L22.6443 6.59505C23.6412 7.19918 24.25 8.28012 24.25 9.44571V19.9167C24.25 21.7576 22.7576 23.25 20.9167 23.25H16.75M9.25 23.25V17.8333C9.25 15.9924 10.7424 14.5 12.5833 14.5H13.4167C15.2576 14.5 16.75 15.9924 16.75 17.8333V23.25M9.25 23.25H16.75" stroke="#14B8A6" stroke-width="1.66667" stroke-linecap="round" stroke-linejoin="round"/>
</svg>
