<svg width="33" height="31" viewBox="0 0 33 31" fill="none" xmlns="http://www.w3.org/2000/svg">
<path d="M32 11.143V26.3335C32 28.1744 30.5076 29.6668 28.6667 29.6668H21.7778H11.5556H4.66668C2.82573 29.6668 1.33334 28.1744 1.33334 26.3335V11.143C1.33334 9.95418 1.96645 8.85537 2.99491 8.25916L14.9949 1.30264C16.0288 0.703259 17.3045 0.70326 18.3384 1.30264L30.3384 8.25916C31.3669 8.85537 32 9.95418 32 11.143Z" fill="white"/>
<path d="M11.5556 29.6668H4.66668C2.82573 29.6668 1.33334 28.1744 1.33334 26.3335V11.143C1.33334 9.95418 1.96645 8.85537 2.99491 8.25916L14.9949 1.30264C16.0288 0.703259 17.3045 0.70326 18.3384 1.30264L30.3384 8.25916C31.3669 8.85537 32 9.95418 32 11.143V26.3335C32 28.1744 30.5076 29.6668 28.6667 29.6668H21.7778M11.5556 29.6668V21.5928C11.5556 19.7518 13.0479 18.2594 14.8889 18.2594H18.4445C20.2854 18.2594 21.7778 19.7518 21.7778 21.5928V29.6668M11.5556 29.6668H21.7778" stroke="#334155" stroke-width="1.66667" stroke-linecap="round" stroke-linejoin="round"/>
</svg>
