<svg width="24" height="22" viewBox="0 0 24 22" fill="none" xmlns="http://www.w3.org/2000/svg">
<path d="M16.2981 10.2955C16.2981 10.8832 16.0702 11.4468 15.6645 11.8624C15.2587 12.2779 14.7084 12.5114 14.1347 12.5114C13.5609 12.5114 13.0106 12.2779 12.6049 11.8624C12.1991 11.4468 11.9712 10.8832 11.9712 10.2955C11.9712 9.7078 12.1991 9.14418 12.6049 8.72861C13.0106 8.31305 13.5609 8.07959 14.1347 8.07959C14.7084 8.07959 15.2587 8.31305 15.6645 8.72861C16.0702 9.14418 16.2981 9.7078 16.2981 10.2955Z" stroke="#F9C04D" stroke-linecap="round" stroke-linejoin="round"/>
<path d="M10.5288 21.3749L15.5769 16.2045C16.298 15.4659 17.7403 15.4659 18.4615 16.2045L20.625 18.4204" stroke="#3FFF00" stroke-linecap="round" stroke-linejoin="round"/>
<path d="M1.875 15.4659L4.75962 12.5114C5.48077 11.7727 6.92308 11.7727 7.64423 12.5114L13.4135 18.4205" stroke="#3FFF00" stroke-linecap="round" stroke-linejoin="round"/>
<path d="M4.03846 5.125H18.4615C19.6587 5.125 20.625 6.11477 20.625 7.34091V19.1591C20.625 20.3852 19.6587 21.375 18.4615 21.375H4.03846C3.46468 21.375 2.91439 21.1415 2.50866 20.726C2.10294 20.3104 1.875 19.7468 1.875 19.1591V7.34091C1.875 6.11477 2.84135 5.125 4.03846 5.125Z" stroke="#18AAEB" stroke-linecap="round" stroke-linejoin="round"/>
</svg>
