<svg width="24" height="24" viewBox="0 0 24 24" fill="none" xmlns="http://www.w3.org/2000/svg">
<path d="M18.9101 18C19.8251 19.368 20.2111 20.203 19.8871 20.9C19.8471 20.9853 19.8005 21.0677 19.7471 21.147C19.1721 22 17.6871 22 14.7171 22H9.28313C6.31313 22 4.82913 22 4.25413 21.147C4.20167 21.0681 4.15489 20.9855 4.11413 20.9C3.79013 20.203 4.17613 19.368 5.09013 18M15.0001 9.5C15.0001 10.2956 14.6841 11.0587 14.1215 11.6213C13.5588 12.1839 12.7958 12.5 12.0001 12.5C11.2045 12.5 10.4414 12.1839 9.87881 11.6213C9.3162 11.0587 9.00013 10.2956 9.00013 9.5C9.00013 8.70435 9.3162 7.94129 9.87881 7.37868C10.4414 6.81607 11.2045 6.5 12.0001 6.5C12.7958 6.5 13.5588 6.81607 14.1215 7.37868C14.6841 7.94129 15.0001 8.70435 15.0001 9.5Z" stroke="#FB7185" stroke-width="1.5" stroke-linecap="round" stroke-linejoin="round"/>
<path d="M12 2C16.059 2 19.5 5.428 19.5 9.587C19.5 13.812 16.003 16.777 12.773 18.793C12.5378 18.9283 12.2713 18.9995 12 18.9995C11.7287 18.9995 11.4622 18.9283 11.227 18.793C8.003 16.757 4.5 13.827 4.5 9.587C4.5 5.428 7.941 2 12 2Z" stroke="#FB7185" stroke-width="1.5" stroke-linecap="round" stroke-linejoin="round"/>
</svg>
