<svg width="24" height="24" viewBox="0 0 24 24" fill="none" xmlns="http://www.w3.org/2000/svg">
<path d="M12 1.92188C14.5048 1.92467 16.9128 2.85882 18.7607 4.53223L19.123 4.87695C21.0124 6.76632 22.0751 9.32803 22.0781 12L22.0713 12.373C22.0069 14.1115 21.4934 15.8039 20.5811 17.2852L20.3799 17.5986C19.3417 19.1523 17.8935 20.3856 16.1992 21.1621L15.8564 21.3105C14.1301 22.0256 12.2415 22.2459 10.4014 21.9502L10.0342 21.8848C8.20154 21.5202 6.50832 20.6538 5.14258 19.3857L4.87402 19.126C3.55274 17.8047 2.62637 16.1442 2.19531 14.3311L2.11523 13.9658C1.75074 12.133 1.90363 10.2374 2.55273 8.49023L2.68945 8.14355C3.40462 6.41698 4.58424 4.92517 6.09473 3.83301L6.40137 3.62012C7.95506 2.58209 9.76455 1.99768 11.627 1.92871L12 1.92188ZM15.0312 4.68066C13.5838 4.08123 11.9906 3.92483 10.4541 4.23047C9.01366 4.51707 7.68283 5.1976 6.60938 6.19434L6.39844 6.39844C5.35978 7.4371 4.63177 8.74262 4.29297 10.168L4.23047 10.4541C3.94388 11.8949 4.06395 13.3853 4.57422 14.7588L4.68066 15.0312C5.24279 16.3883 6.17118 17.5605 7.3584 18.4189L7.59863 18.5869C8.82005 19.403 10.2429 19.8618 11.707 19.916L12 19.9219C13.969 19.9198 15.8618 19.1855 17.3145 17.8701L17.5996 17.5996C19.0848 16.1145 19.9196 14.1003 19.9219 12L19.916 11.707C19.8655 10.3404 19.4623 9.01009 18.7451 7.8457L18.5869 7.59863C17.7165 6.29593 16.4787 5.28024 15.0312 4.68066ZM15.8965 13.1631C16.003 13.1767 16.1066 13.2059 16.2041 13.25L16.2998 13.2988C16.3927 13.3525 16.477 13.4197 16.5498 13.498L16.6182 13.5801C16.6831 13.6656 16.7356 13.7599 16.7725 13.8604L16.8037 13.9629C16.8395 14.1016 16.8478 14.246 16.8271 14.3877C16.8116 14.4942 16.7803 14.5975 16.7344 14.6943L16.6836 14.7881V14.7891C15.6602 16.5623 13.9511 17.5781 12 17.5781C10.0494 17.5781 8.34364 16.5635 7.31738 14.79C7.19765 14.5737 7.156 14.3235 7.19824 14.082L7.22168 13.9795C7.28782 13.7413 7.4335 13.5343 7.63281 13.3916L7.7207 13.334C7.96524 13.1928 8.25586 13.1532 8.5293 13.2236C8.80286 13.2942 9.03787 13.4699 9.18359 13.7119V13.7109C9.55167 14.3477 10.4096 15.4219 12 15.4219C13.3918 15.4219 14.2228 14.5986 14.6553 13.9668L14.8164 13.7109L14.8174 13.71C14.8694 13.616 14.9347 13.5303 15.0117 13.4561L15.0928 13.3857C15.2051 13.2972 15.3338 13.2316 15.4717 13.1934C15.5751 13.1646 15.6822 13.1514 15.7891 13.1543L15.8965 13.1631ZM8.06934 8.78223C8.33468 8.67242 8.62655 8.64421 8.9082 8.7002C9.19008 8.75626 9.44912 8.89443 9.65234 9.09766C9.83025 9.27556 9.95859 9.496 10.0254 9.7373L10.0498 9.8418C10.0988 10.0883 10.0832 10.3425 10.0049 10.5801L9.96777 10.6807C9.87153 10.913 9.7168 11.1165 9.51953 11.2705L9.43262 11.333C9.19365 11.4927 8.9124 11.5781 8.625 11.5781C8.28779 11.5781 7.96268 11.4609 7.7041 11.249L7.59766 11.1523C7.32514 10.8798 7.17188 10.5104 7.17188 10.125C7.17188 9.87353 7.23708 9.62697 7.36035 9.40918L7.41699 9.31738C7.55677 9.1083 7.74811 8.93969 7.97168 8.82715L8.06934 8.78223ZM15.375 8.67188C15.7604 8.67188 16.1298 8.82514 16.4023 9.09766C16.6749 9.37017 16.8281 9.73961 16.8281 10.125C16.8281 10.4124 16.7427 10.6937 16.583 10.9326C16.4233 11.1714 16.1961 11.3578 15.9307 11.4678C15.6653 11.5776 15.3735 11.6058 15.0918 11.5498C14.845 11.5007 14.6154 11.3891 14.4258 11.2256L14.3477 11.1523C14.1698 10.9744 14.0414 10.754 13.9746 10.5127L13.9502 10.4082C13.9012 10.1617 13.9168 9.90745 13.9951 9.66992L14.0322 9.56934C14.1285 9.33699 14.2832 9.13353 14.4805 8.97949L14.5674 8.91699C14.8063 8.75732 15.0876 8.67188 15.375 8.67188Z" fill="#475569" stroke="#475569" stroke-width="0.09375"/>
</svg>
