<svg width="20" height="20" viewBox="0 0 20 20" fill="none" xmlns="http://www.w3.org/2000/svg">
<path d="M18.2701 8.63095L5.14038 1.13876C4.86355 0.98369 4.54607 0.916576 4.23017 0.946347C3.91427 0.976117 3.61491 1.10136 3.37193 1.30542C3.12894 1.50947 2.95384 1.78267 2.86992 2.08868C2.78599 2.39468 2.79722 2.71898 2.9021 3.01845L5.25992 9.9997L2.9021 16.9809C2.81921 17.2165 2.79396 17.4684 2.82848 17.7157C2.863 17.963 2.95627 18.1984 3.10049 18.4022C3.2447 18.606 3.43567 18.7723 3.65737 18.8871C3.87908 19.002 4.12508 19.062 4.37476 19.0622C4.64326 19.0616 4.90713 18.9922 5.14117 18.8606L5.1482 18.8559L18.2732 11.3505C18.5138 11.2143 18.714 11.0166 18.8533 10.7777C18.9926 10.5388 19.066 10.2672 19.066 9.99071C19.066 9.71418 18.9926 9.4426 18.8533 9.20371C18.714 8.96482 18.5138 8.76717 18.2732 8.63095H18.2701ZM4.93648 16.8169L6.92242 10.9372H11.2498C11.4984 10.9372 11.7369 10.8384 11.9127 10.6626C12.0885 10.4868 12.1873 10.2483 12.1873 9.9997C12.1873 9.75106 12.0885 9.5126 11.9127 9.33679C11.7369 9.16097 11.4984 9.0622 11.2498 9.0622H6.92242L4.9357 3.18095L16.8701 9.99111L4.93648 16.8169Z" fill="white"/>
</svg>
