<svg width="30" height="30" viewBox="0 0 30 30" fill="none" xmlns="http://www.w3.org/2000/svg">
<path d="M12 7.60005C12 6.85744 12.3161 6.14525 12.8787 5.62015C13.4413 5.09505 14.2044 4.80005 15 4.80005C15.7956 4.80005 16.5587 5.09505 17.1213 5.62015C17.6839 6.14525 18 6.85744 18 7.60005V24.4C18 25.1427 17.6839 25.8548 17.1213 26.3799C16.5587 26.905 15.7956 27.2 15 27.2C14.2044 27.2 13.4413 26.905 12.8787 26.3799C12.3161 25.8548 12 25.1427 12 24.4V7.60005Z" fill="url(#paint0_linear_1638_83852)"/>
<path d="M21 13.2C21 12.4574 21.3161 11.7452 21.8787 11.2201C22.4413 10.695 23.2044 10.4 24 10.4C24.7956 10.4 25.5587 10.695 26.1213 11.2201C26.6839 11.7452 27 12.4574 27 13.2V24.4C27 25.1426 26.6839 25.8548 26.1213 26.3799C25.5587 26.905 24.7956 27.2 24 27.2C23.2044 27.2 22.4413 26.905 21.8787 26.3799C21.3161 25.8548 21 25.1426 21 24.4V13.2Z" fill="url(#paint1_linear_1638_83852)"/>
<path d="M3 18.8C3 18.0574 3.31607 17.3452 3.87868 16.8201C4.44129 16.295 5.20435 16 6 16C6.79565 16 7.55871 16.295 8.12132 16.8201C8.68393 17.3452 9 18.0574 9 18.8V24.4C9 25.1426 8.68393 25.8548 8.12132 26.3799C7.55871 26.905 6.79565 27.2 6 27.2C5.20435 27.2 4.44129 26.905 3.87868 26.3799C3.31607 25.8548 3 25.1426 3 24.4V18.8Z" fill="url(#paint2_linear_1638_83852)"/>
<defs>
<linearGradient id="paint0_linear_1638_83852" x1="17.5005" y1="23.0938" x2="13.8689" y2="4.65115" gradientUnits="userSpaceOnUse">
<stop stop-color="#6D37CD"/>
<stop offset="1" stop-color="#EA71EF"/>
</linearGradient>
<linearGradient id="paint1_linear_1638_83852" x1="26.5005" y1="24.12" x2="24.4229" y2="10.0589" gradientUnits="userSpaceOnUse">
<stop stop-color="#E23CB4"/>
<stop offset="1" stop-color="#EA71EF"/>
</linearGradient>
<linearGradient id="paint2_linear_1638_83852" x1="3.75" y1="16.4662" x2="14.7983" y2="23.4684" gradientUnits="userSpaceOnUse">
<stop stop-color="#36DFF1"/>
<stop offset="1" stop-color="#0078D4"/>
</linearGradient>
</defs>
</svg>
