<svg width="40" height="40" viewBox="0 0 40 40" fill="none" xmlns="http://www.w3.org/2000/svg">
<path d="M35 15.4688H5V35H35V15.4688Z" fill="#4FBE9F"/>
<path d="M35 35H5L15.1562 15.4688H24.8438L35 35Z" fill="#EBEEF2"/>
<path d="M20.4437 14.8687H19.5562V17.4749H20.4437V14.8687Z" fill="white"/>
<path d="M20.4437 19.3999H19.5562V22.0062H20.4437V19.3999Z" fill="white"/>
<path d="M20.4437 23.9312H19.5562V26.5374H20.4437V23.9312Z" fill="white"/>
<path d="M20.4437 28.4624H19.5562V31.0687H20.4437V28.4624Z" fill="white"/>
<path d="M20.4437 32.9937H19.5562V34.9999H20.4437V32.9937Z" fill="white"/>
<path d="M25.9252 10.925C25.9261 10.1215 25.7637 9.3263 25.4478 8.5876C25.1318 7.84891 24.6689 7.18219 24.0872 6.62798C23.5055 6.07377 22.8172 5.64366 22.0641 5.36378C21.311 5.08391 20.5088 4.96013 19.7064 4.99996C18.2754 5.12492 16.9321 5.74291 15.9062 6.74834C14.8802 7.75377 14.2352 9.08425 14.0814 10.5125C14.0195 11.4613 14.1871 12.4111 14.5701 13.2814C14.953 14.1518 15.54 14.9171 16.2814 15.5125C17.6889 16.6139 18.853 17.995 19.7002 19.5687L19.8689 19.9C19.8814 19.9221 19.8996 19.9404 19.9216 19.9532C19.9435 19.966 19.9685 19.9727 19.9939 19.9727C20.0193 19.9727 20.0443 19.966 20.0662 19.9532C20.0882 19.9404 20.1064 19.9221 20.1189 19.9L20.2189 19.7062C21.0686 18.0842 22.2505 16.6595 23.6877 15.525C24.3829 14.9762 24.9453 14.2775 25.3327 13.481C25.7201 12.6844 25.9227 11.8107 25.9252 10.925Z" fill="#4FBE9F"/>
<path d="M22 11.0753C22.0012 11.4711 21.885 11.8584 21.666 12.1881C21.447 12.5179 21.135 12.7752 20.7697 12.9275C20.4044 13.0798 20.002 13.1203 19.6137 13.0439C19.2253 12.9674 18.8683 12.7774 18.588 12.498C18.3077 12.2185 18.1166 11.8622 18.0389 11.474C17.9612 11.0859 18.0005 10.6834 18.1516 10.3176C18.3028 9.95181 18.5592 9.63908 18.8882 9.41904C19.2172 9.199 19.6042 9.08154 20 9.08154C20.5293 9.08154 21.0371 9.2914 21.412 9.66512C21.7869 10.0388 21.9983 10.5459 22 11.0753Z" fill="white"/>
</svg>
