<svg width="24" height="24" viewBox="0 0 24 24" fill="none" xmlns="http://www.w3.org/2000/svg">
<path d="M5.08057 1.18262C5.40388 1.15215 5.72891 1.20871 6.02197 1.34473L6.146 1.4082L21.9009 10.3984L21.9116 10.4043H21.9146C22.1566 10.5433 22.3633 10.7354 22.519 10.9658L22.5835 11.0684C22.7464 11.3478 22.8325 11.6658 22.8325 11.9893C22.8325 12.2724 22.7667 12.5512 22.6411 12.8037L22.5835 12.9102C22.4409 13.1548 22.244 13.3627 22.0083 13.5176L21.9048 13.5801L6.15479 22.5869L6.15186 22.5889L6.14697 22.5928C5.87312 22.7468 5.5637 22.8265 5.24951 22.8271C5.03046 22.8269 4.81389 22.7884 4.60986 22.7119L4.41064 22.624C4.15138 22.4897 3.92798 22.2949 3.75928 22.0566C3.63269 21.8777 3.53952 21.6776 3.48389 21.4668L3.44092 21.2529C3.41064 21.036 3.42001 20.8161 3.46729 20.6035L3.52686 20.3936V20.3926L6.35693 12.0156L6.36182 12L6.35693 11.9854L3.52686 3.60742L3.48584 3.47461C3.40247 3.16239 3.40384 2.83277 3.48975 2.51953C3.57567 2.20623 3.74308 1.92232 3.97412 1.69629L4.07666 1.60254C4.32528 1.3938 4.62456 1.25585 4.94287 1.20117L5.08057 1.18262ZM5.87842 3.83301L8.26318 10.8906L8.27393 10.9219H13.5005C13.7862 10.922 14.0601 11.0362 14.2622 11.2383C14.4643 11.4404 14.5786 11.7142 14.5786 12C14.5786 12.2503 14.4908 12.4917 14.3335 12.6836L14.2622 12.7627C14.0601 12.9647 13.7862 13.078 13.5005 13.0781H8.27393L8.26318 13.1104L5.87939 20.166L5.84033 20.2832L5.94775 20.2217L20.2681 12.0303L20.3394 11.9902L20.2681 11.9492L5.94678 3.77734L5.83936 3.71582L5.87842 3.83301Z" fill="#14B8A6" stroke="#14B8A6" stroke-width="0.09375"/>
</svg>
