<svg width="26" height="24" viewBox="0 0 26 24" fill="none" xmlns="http://www.w3.org/2000/svg">
<path d="M25.1875 8.25C25.188 8.16284 25.1762 8.07604 25.1523 7.99219L23.4707 2.10937C23.3577 1.71904 23.1214 1.37574 22.7972 1.13073C22.473 0.885731 22.0782 0.752171 21.6719 0.75H4.32813C3.92176 0.752171 3.527 0.885731 3.20279 1.13073C2.87859 1.37574 2.64233 1.71904 2.5293 2.10937L0.848829 7.99219C0.82462 8.07598 0.812389 8.16278 0.812501 8.25V10.125C0.812501 10.8527 0.981931 11.5704 1.30737 12.2213C1.63282 12.8722 2.10533 13.4384 2.6875 13.875V22.3125C2.6875 22.5611 2.78627 22.7996 2.96209 22.9754C3.1379 23.1512 3.37636 23.25 3.625 23.25H22.375C22.6236 23.25 22.8621 23.1512 23.0379 22.9754C23.2137 22.7996 23.3125 22.5611 23.3125 22.3125V13.875C23.8947 13.4384 24.3672 12.8722 24.6926 12.2213C25.0181 11.5704 25.1875 10.8527 25.1875 10.125V8.25ZM4.32813 2.625H21.6719L23.0102 7.3125H2.99336L4.32813 2.625ZM10.1875 9.1875H15.8125V10.125C15.8125 10.8709 15.5162 11.5863 14.9887 12.1137C14.4613 12.6412 13.7459 12.9375 13 12.9375C12.2541 12.9375 11.5387 12.6412 11.0113 12.1137C10.4838 11.5863 10.1875 10.8709 10.1875 10.125V9.1875ZM8.3125 9.1875V10.125C8.31233 10.6086 8.18745 11.0841 7.94991 11.5054C7.71238 11.9266 7.37022 12.2796 6.95648 12.53C6.54274 12.7805 6.07141 12.92 5.58801 12.9351C5.10461 12.9503 4.62547 12.8405 4.19688 12.6164C4.13166 12.5656 4.05993 12.5239 3.98359 12.4922C3.58642 12.2379 3.25955 11.8879 3.03307 11.4742C2.80658 11.0606 2.68775 10.5966 2.6875 10.125V9.1875H8.3125ZM21.4375 21.375H4.5625V14.7188C4.87113 14.781 5.18517 14.8124 5.5 14.8125C6.22771 14.8125 6.94543 14.6431 7.59631 14.3176C8.2472 13.9922 8.81337 13.5197 9.25 12.9375C9.68663 13.5197 10.2528 13.9922 10.9037 14.3176C11.5546 14.6431 12.2723 14.8125 13 14.8125C13.7277 14.8125 14.4454 14.6431 15.0963 14.3176C15.7472 13.9922 16.3134 13.5197 16.75 12.9375C17.1866 13.5197 17.7528 13.9922 18.4037 14.3176C19.0546 14.6431 19.7723 14.8125 20.5 14.8125C20.8148 14.8124 21.1289 14.781 21.4375 14.7188V21.375ZM22.0152 12.4922C21.9399 12.5239 21.869 12.5653 21.8043 12.6152C21.3758 12.8396 20.8966 12.9496 20.4131 12.9346C19.9297 12.9197 19.4582 12.7803 19.0443 12.5299C18.6305 12.2796 18.2881 11.9267 18.0505 11.5054C17.8128 11.0842 17.6878 10.6087 17.6875 10.125V9.1875H23.3125V10.125C23.3121 10.5967 23.1931 11.0607 22.9664 11.4744C22.7397 11.8881 22.4126 12.2381 22.0152 12.4922Z" fill="#334155"/>
</svg>
