<svg width="30" height="30" viewBox="0 0 30 30" fill="none" xmlns="http://www.w3.org/2000/svg">
<path d="M28.6874 17.625C28.5889 17.6988 28.4768 17.7526 28.3575 17.7831C28.2383 17.8137 28.1142 17.8205 27.9923 17.803C27.8704 17.7856 27.7532 17.7444 27.6472 17.6817C27.5413 17.6189 27.4487 17.536 27.3749 17.4375C26.8098 16.6779 26.0743 16.0617 25.2276 15.6383C24.3808 15.2149 23.4465 14.9963 22.4999 15C22.3155 14.9999 22.1353 14.9456 21.9816 14.8437C21.828 14.7417 21.7079 14.5968 21.6362 14.4269C21.5875 14.3116 21.5625 14.1877 21.5625 14.0625C21.5625 13.9373 21.5875 13.8134 21.6362 13.698C21.7079 13.5282 21.828 13.3832 21.9816 13.2813C22.1353 13.1794 22.3155 13.125 22.4999 13.125C23.0259 13.1249 23.5414 12.9774 23.9877 12.699C24.4341 12.4207 24.7934 12.0228 25.025 11.5505C25.2565 11.0782 25.351 10.5504 25.2976 10.0271C25.2442 9.50376 25.0452 9.00591 24.723 8.59007C24.4009 8.17423 23.9686 7.85706 23.4752 7.67459C22.9819 7.49213 22.4472 7.45168 21.932 7.55784C21.4168 7.664 20.9417 7.91251 20.5607 8.27515C20.1796 8.63779 19.9079 9.10002 19.7764 9.60934C19.7456 9.72861 19.6917 9.84064 19.6176 9.93905C19.5435 10.0375 19.4508 10.1203 19.3447 10.1829C19.2386 10.2455 19.1212 10.2865 18.9992 10.3037C18.8773 10.3209 18.7531 10.3139 18.6339 10.2832C18.5146 10.2524 18.4025 10.1984 18.3041 10.1243C18.2057 10.0503 18.1229 9.95753 18.0603 9.85143C17.9977 9.74533 17.9567 9.62795 17.9395 9.50598C17.9223 9.38402 17.9292 9.25986 17.96 9.14059C18.1425 8.43432 18.4874 7.78039 18.9671 7.23085C19.4468 6.6813 20.0482 6.2513 20.7234 5.97506C21.3985 5.69883 22.1288 5.58398 22.8562 5.63965C23.5835 5.69532 24.2878 5.91999 24.9131 6.29576C25.5383 6.67153 26.0672 7.18805 26.4577 7.8042C26.8482 8.42036 27.0895 9.11915 27.1624 9.84498C27.2353 10.5708 27.1379 11.3036 26.8777 11.9851C26.6176 12.6667 26.2019 13.278 25.6639 13.7707C26.9387 14.3226 28.0469 15.1985 28.8784 16.3113C28.9522 16.41 29.0059 16.5224 29.0363 16.6419C29.0667 16.7614 29.0732 16.8857 29.0554 17.0078C29.0377 17.1298 28.996 17.2471 28.9329 17.353C28.8697 17.4589 28.7863 17.5513 28.6874 17.625ZM22.3733 24.8437C22.4411 24.9504 22.4867 25.0697 22.5072 25.1945C22.5277 25.3193 22.5228 25.4469 22.4927 25.5697C22.4626 25.6925 22.408 25.808 22.3322 25.9091C22.2563 26.0103 22.1608 26.095 22.0513 26.1583C21.9418 26.2216 21.8207 26.2621 21.6952 26.2773C21.5697 26.2926 21.4424 26.2823 21.3209 26.247C21.1995 26.2118 21.0864 26.1524 20.9886 26.0723C20.8907 25.9923 20.81 25.8932 20.7514 25.7812C20.1609 24.7812 19.3198 23.9525 18.3111 23.3768C17.3025 22.801 16.1612 22.4983 14.9999 22.4983C13.8385 22.4983 12.6972 22.801 11.6886 23.3768C10.68 23.9525 9.83888 24.7812 9.2483 25.7812C9.1897 25.8932 9.10903 25.9923 9.01116 26.0723C8.91329 26.1524 8.80024 26.2118 8.67881 26.247C8.55738 26.2823 8.43007 26.2926 8.30455 26.2773C8.17904 26.2621 8.0579 26.2216 7.94843 26.1583C7.83897 26.095 7.74343 26.0103 7.66757 25.9091C7.59171 25.808 7.5371 25.6925 7.50702 25.5697C7.47694 25.4469 7.47201 25.3193 7.49253 25.1945C7.51305 25.0697 7.5586 24.9504 7.62643 24.8437C8.53533 23.282 9.92119 22.0531 11.5803 21.3375C10.6467 20.6227 9.9606 19.6333 9.61838 18.5084C9.27616 17.3834 9.29506 16.1796 9.67242 15.0659C10.0498 13.9523 10.7666 12.985 11.7222 12.2998C12.6778 11.6147 13.824 11.2462 14.9999 11.2462C16.1757 11.2462 17.3219 11.6147 18.2775 12.2998C19.2331 12.985 19.9499 13.9523 20.3273 15.0659C20.7047 16.1796 20.7236 17.3834 20.3813 18.5084C20.0391 19.6333 19.353 20.6227 18.4194 21.3375C20.0785 22.0531 21.4644 23.282 22.3733 24.8437ZM14.9999 20.625C15.7415 20.625 16.4666 20.405 17.0833 19.993C17.6999 19.5809 18.1806 18.9952 18.4644 18.31C18.7482 17.6248 18.8225 16.8708 18.6778 16.1434C18.5331 15.4159 18.176 14.7478 17.6515 14.2233C17.1271 13.6989 16.4589 13.3417 15.7315 13.197C15.004 13.0523 14.25 13.1266 13.5648 13.4104C12.8796 13.6942 12.2939 14.1749 11.8819 14.7916C11.4698 15.4083 11.2499 16.1333 11.2499 16.875C11.2499 17.8695 11.645 18.8234 12.3482 19.5266C13.0515 20.2299 14.0053 20.625 14.9999 20.625ZM8.43737 14.0625C8.43737 13.8138 8.33859 13.5754 8.16278 13.3996C7.98696 13.2237 7.74851 13.125 7.49987 13.125C6.97385 13.1249 6.45838 12.9774 6.01202 12.699C5.56566 12.4207 5.20629 12.0228 4.97475 11.5505C4.7432 11.0782 4.64875 10.5504 4.70213 10.0271C4.75551 9.50376 4.95457 9.00591 5.27671 8.59007C5.59885 8.17423 6.03115 7.85706 6.52451 7.67459C7.01788 7.49213 7.55252 7.45168 8.06772 7.55784C8.58292 7.664 9.05802 7.91251 9.43906 8.27515C9.8201 8.63779 10.0918 9.10002 10.2233 9.60934C10.2855 9.85021 10.4408 10.0565 10.655 10.1829C10.8693 10.3093 11.125 10.3453 11.3659 10.2832C11.6068 10.221 11.8131 10.0657 11.9394 9.85143C12.0658 9.63716 12.1019 9.38146 12.0397 9.14059C11.8572 8.43432 11.5123 7.78039 11.0326 7.23085C10.5529 6.6813 9.95153 6.2513 9.27637 5.97506C8.60122 5.69883 7.87092 5.58398 7.14357 5.63965C6.41622 5.69532 5.7119 5.91999 5.08666 6.29576C4.46141 6.67153 3.9325 7.18805 3.542 7.8042C3.1515 8.42036 2.9102 9.11915 2.83729 9.84498C2.76438 10.5708 2.86188 11.3036 3.12203 11.9851C3.38217 12.6667 3.79779 13.278 4.3358 13.7707C3.06231 14.3231 1.95539 15.199 1.12487 16.3113C0.975528 16.5102 0.911322 16.7603 0.946375 17.0065C0.981428 17.2528 1.11287 17.475 1.31178 17.6244C1.51069 17.7737 1.76078 17.8379 2.00704 17.8029C2.25329 17.7678 2.47553 17.6364 2.62487 17.4375C3.18993 16.6779 3.92543 16.0617 4.77216 15.6383C5.61889 15.2149 6.5532 14.9963 7.49987 15C7.74851 15 7.98696 14.9012 8.16278 14.7254C8.33859 14.5496 8.43737 14.3111 8.43737 14.0625Z" fill="#334155"/>
</svg>
