<svg width="24" height="24" viewBox="0 0 24 24" fill="none" xmlns="http://www.w3.org/2000/svg">
<path d="M12 1.17188C13.2004 1.17188 14.3546 1.61904 15.2402 2.4209L15.4141 2.58594C16.3195 3.49139 16.8281 4.7195 16.8281 6V12L16.8223 12.2393C16.7618 13.4321 16.2607 14.5635 15.4121 15.4121C14.507 16.3172 13.28 16.8266 12 16.8281L11.7607 16.8223C10.5679 16.7618 9.43647 16.2607 8.58789 15.4121C7.68276 14.507 7.17336 13.28 7.17188 12V6C7.17188 4.7996 7.61904 3.64542 8.4209 2.75977L8.58594 2.58594C9.49139 1.68049 10.7195 1.17188 12 1.17188ZM12 3.32812C11.3799 3.32812 10.7821 3.54392 10.3066 3.93359L10.1104 4.11035C9.60928 4.61143 9.32812 5.29137 9.32812 6V12C9.32812 12.6201 9.54392 13.2179 9.93359 13.6934L10.1104 13.8896C10.6114 14.3907 11.2914 14.6719 12 14.6719C12.6201 14.6719 13.2179 14.4561 13.6934 14.0664L13.8896 13.8896C14.3907 13.3886 14.6719 12.7086 14.6719 12V6C14.6719 5.37986 14.4561 4.78212 14.0664 4.30664L13.8896 4.11035C13.3886 3.60928 12.7086 3.32812 12 3.32812ZM10.9219 20.5107L10.8809 20.5059C8.94741 20.2488 7.16321 19.3416 5.81738 17.9404L5.55371 17.6533C4.18207 16.0891 3.42453 14.0804 3.42188 12C3.42188 11.7497 3.50873 11.5083 3.66602 11.3164L3.7373 11.2373C3.93949 11.0351 4.21406 10.9219 4.5 10.9219C4.75028 10.9219 4.99172 11.0087 5.18359 11.166L5.2627 11.2373C5.46488 11.4395 5.57812 11.7141 5.57812 12C5.57812 13.5968 6.17253 15.1325 7.23926 16.3105L7.45898 16.541C8.66332 17.7453 10.2968 18.4219 12 18.4219C13.5968 18.4219 15.1325 17.8275 16.3105 16.7607L16.541 16.541C17.7454 15.3367 18.4219 13.7032 18.4219 12C18.4219 11.7497 18.5087 11.5083 18.666 11.3164L18.7373 11.2373C18.9395 11.0351 19.2141 10.9219 19.5 10.9219C19.7503 10.9219 19.9917 11.0087 20.1836 11.166L20.2627 11.2373C20.4649 11.4395 20.5781 11.7141 20.5781 12L20.5684 12.3887C20.484 14.2002 19.8291 15.9393 18.6963 17.3555L18.4463 17.6533C17.0745 19.2175 15.1815 20.2317 13.1191 20.5059L13.0781 20.5107V22.5C13.0781 22.7503 12.9913 22.9917 12.834 23.1836L12.7627 23.2627C12.5605 23.4649 12.2859 23.5781 12 23.5781C11.7497 23.5781 11.5083 23.4913 11.3164 23.334L11.2373 23.2627C11.0351 23.0605 10.9219 22.7859 10.9219 22.5V20.5107Z" fill="#475569" stroke="#475569" stroke-width="0.09375"/>
</svg>
